<?xml version="1.0" encoding="UTF-8" standalone="no"?>
<svg
   id="Layer_1"
   version="1.1"
   viewBox="0 0 1024 1024"
   sodipodi:docname="rustac_v5b_edit_cleaned.svg"
   inkscape:version="1.4 (e7c3feb1, 2024-10-09)"
   inkscape:export-filename="rustac_v5b_edit_export.svg"
   inkscape:export-xdpi="96"
   inkscape:export-ydpi="96"
   xmlns:inkscape="http://www.inkscape.org/namespaces/inkscape"
   xmlns:sodipodi="http://sodipodi.sourceforge.net/DTD/sodipodi-0.dtd"
   xmlns="http://www.w3.org/2000/svg"
   xmlns:svg="http://www.w3.org/2000/svg">
  <sodipodi:namedview
     id="namedview252"
     pagecolor="#ffffff"
     bordercolor="#000000"
     borderopacity="0.25"
     inkscape:showpageshadow="2"
     inkscape:pageopacity="0.0"
     inkscape:pagecheckerboard="0"
     inkscape:deskcolor="#d1d1d1"
     inkscape:zoom="0.5"
     inkscape:cx="473"
     inkscape:cy="588"
     inkscape:window-width="1200"
     inkscape:window-height="1027"
     inkscape:window-x="0"
     inkscape:window-y="25"
     inkscape:window-maximized="0"
     inkscape:current-layer="Layer_1" />
  <!-- Generator: Adobe Illustrator 29.6.0, SVG Export Plug-In . SVG Version: 2.1.1 Build 91)  -->
  <defs
     id="defs1">
    <style
       id="style1">
      .st0 {
        fill: #9a321c;
      }

      .st1 {
        fill: #ec702c;
      }

      .st2 {
        fill: #5f321e;
      }

      .st3 {
        fill: #fdd6a3;
      }

      .st4 {
        fill: #f7922b;
      }

      .st5 {
        fill: #979b72;
      }

      .st6 {
        fill: #e4632a;
      }

      .st7 {
        fill: #b7321a;
      }

      .st8 {
        fill: #813e1f;
      }

      .st9 {
        opacity: 0;
      }

      .st9, .st10, .st11 {
        display: none;
      }

      .st12 {
        fill: #52231d;
      }

      .st13 {
        fill: #833f1f;
      }

      .st14 {
        fill: #f28020;
      }

      .st15 {
        fill: #dc3921;
      }

      .st16 {
        fill: #873a1d;
      }

      .st17, .st10 {
        fill: #0e2924;
      }

      .st18 {
        fill: #fdb32a;
      }

      .st19 {
        fill: #5e321e;
      }

      .st20 {
        fill: #ef7130;
      }

      .st21 {
        fill: #bd602f;
      }

      .st22 {
        fill: #552c1c;
      }

      .st23 {
        fill: #512a1b;
      }

      .st24 {
        fill: #e6662a;
      }

      .st25 {
        fill: #9f321c;
      }

      .st26 {
        fill: #144e63;
      }

      .st27 {
        fill: #9e421e;
      }

      .st28 {
        fill: #f7942d;
      }

      .st29 {
        fill: #d45128;
      }

      .st30 {
        fill: #5c2f1c;
      }

      .st31 {
        fill: #39221c;
      }

      .st32 {
        fill: #572b1b;
      }

      .st33 {
        fill: #c44324;
      }

      .st34 {
        fill: #cc4726;
      }

      .st35 {
        fill: #7b3c1e;
      }

      .st36 {
        fill: #f3ebb6;
      }

      .st37 {
        fill: #3f201b;
      }

      .st38 {
        opacity: .5;
      }

      .st39 {
        fill: #dfb77e;
      }

      .st40 {
        fill: #b94513;
      }

      .st41 {
        fill: #9f1c07;
      }

      .st42 {
        fill: #194739;
      }

      .st43 {
        fill: #cd391f;
      }

      .st44 {
        fill: #a44214;
      }

      .st45 {
        fill: #cd4b27;
      }

      .st46 {
        fill: #fdd8a5;
      }

      .st47 {
        fill: #a8341e;
      }

      .st48 {
        fill: #c94624;
      }

      .st49 {
        fill: #5f331e;
      }

      .st50 {
        fill: #f5612a;
      }

      .st51 {
        fill: #66341f;
      }

      .st52 {
        fill: #582c1b;
      }

      .st53 {
        fill: #532b1b;
      }

      .st54 {
        fill: #c4e2ef;
      }

      .st55 {
        fill: #7e3d20;
      }

      .st56 {
        fill: #bc601d;
      }

      .st57 {
        fill: #ef7d24;
      }

      .st58 {
        fill: #f37b1c;
      }

      .st59 {
        fill: #b63521;
      }

      .st60 {
        fill: #9a361d;
      }

      .st61 {
        fill: #5e311e;
      }

      .st62 {
        fill: #652b1b;
      }

      .st63 {
        fill: #753516;
      }

      .st64 {
        fill: #542c1c;
      }

      .st65 {
        fill: #db592a;
      }

      .st66 {
        fill: #512b1c;
      }

      .st67 {
        fill: #6a2e1b;
      }

      .st68 {
        fill: #0e2a26;
      }

      .st69 {
        fill: #fbdca8;
      }

      .st70 {
        fill: #da3a20;
      }

      .st71 {
        fill: #ed5a28;
      }

      .st72 {
        fill: #7a3c1f;
      }

      .st73 {
        fill: #552b1c;
      }

      .st74 {
        fill: #ed4c23;
      }

      .st75 {
        fill: #e46228;
      }

      .st76 {
        fill: #60321e;
      }

      .st77 {
        fill: #76391f;
      }

      .st78 {
        fill: #fdb728;
      }

      .st79 {
        fill: #f8932a;
      }

      .st80 {
        fill: #a2331d;
      }

      .st81 {
        fill: #fcd6a3;
      }

      .st82 {
        fill: #09b3ad;
      }

      .st83 {
        fill: #dc5a28;
      }

      .st84 {
        fill: #999c72;
      }

      .st85 {
        fill: #542c1b;
      }

      .st86 {
        fill: #532c1c;
      }

      .st87 {
        fill: #999c73;
      }

      .st88 {
        fill: #823e1f;
      }

      .st89 {
        fill: #c42e14;
      }

      .st90 {
        fill: #8a3a1e;
      }

      .st91 {
        fill: #5b2a1b;
      }

      .st92 {
        fill: #fefac4;
      }

      .st93 {
        fill: #a2321c;
      }

      .st94 {
        fill: #194839;
      }

      .st95 {
        fill: #fbd5a1;
      }

      .st96 {
        fill: #527357;
      }

      .st97 {
        fill: #e46e1e;
      }

      .st98 {
        fill: #b63621;
      }

      .st99 {
        fill: #406045;
      }

      .st100 {
        fill: #893a1d;
      }

      .st101 {
        fill: #0e2a25;
      }

      .st102 {
        fill: #d24e27;
      }

      .st103 {
        fill: #a55f39;
      }

      .st104 {
        fill: #5d2c1b;
      }

      .st105 {
        fill: #522b1b;
      }

      .st106 {
        fill: #532920;
      }

      .st107 {
        fill: #e05e2b;
      }

      .st108 {
        fill: #a0321c;
      }

      .st109 {
        fill: #5f2d1a;
      }

      .st110 {
        fill: #572a1b;
      }

      .st111 {
        fill: #a3421d;
      }

      .st112 {
        fill: #853e1f;
      }

      .st113 {
        fill: #55765a;
      }

      .st114 {
        fill: #572b1c;
      }

      .st115 {
        fill: #582a1b;
      }

      .st116 {
        fill: #f4f4f4;
      }

      .st117 {
        fill: #517558;
      }

      .st118 {
        fill: #542a1c;
      }

      .st119 {
        fill: #f7902a;
      }

      .st120 {
        fill: #802d1b;
      }

      .st121 {
        fill: #5d321e;
      }

      .st122 {
        fill: #512b1b;
      }

      .st123 {
        fill: #0f2b25;
      }

      .st124 {
        fill: #efe5b2;
      }

      .st125 {
        fill: #f38321;
      }

      .st126 {
        fill: #7a3c20;
      }

      .st127 {
        fill: #65311d;
      }

      .st128 {
        fill: #6e371f;
      }

      .st129 {
        fill: #8b3c1e;
      }

      .st130 {
        fill: #903c1d;
      }

      .st131 {
        fill: #71381f;
      }

      .st132 {
        fill: #9e3f1a;
      }

      .st133 {
        fill: #13362d;
      }

      .st134 {
        fill: #f79128;
      }

      .st135 {
        fill: #517458;
      }

      .st136 {
        fill: #592b1b;
      }

      .st137 {
        fill: #fcebb6;
      }

      .st138 {
        fill: #e76d2e;
      }

      .st139 {
        fill: #b94211;
      }

      .st140 {
        fill: #62311d;
      }

      .st141 {
        fill: #fddba6;
      }

      .st142 {
        fill: #843f1f;
      }

      .st143 {
        fill: #532a1b;
      }

      .st144 {
        fill: #ea6c2b;
      }

      .st145 {
        fill: #d13a20;
      }

      .st146 {
        fill: #6b8661;
      }

      .st147 {
        fill: #f68f2a;
      }

      .st148 {
        fill: #461c1e;
      }

      .st149 {
        fill: #833e1e;
      }

      .st150 {
        fill: #4f7258;
      }
    </style>
  </defs>
  <rect
     class="st17"
     width="1024"
     height="1024"
     id="rect1"
     x="0"
     y="0"
     style="display:inline"
     inkscape:export-filename="rustac_v5b_edit_export.svg"
     inkscape:export-xdpi="96"
     inkscape:export-ydpi="96" />
  <g
     id="g10"
     style="display:inline">
    <path
       class="st42"
       d="m 513,44.6 c 22.5,-0.4 44.9,1.7 67.1,5.6 16.6,2.8 43.6,8.2 59,14.9 34.3,15 63.4,29.5 99.1,55.3 28.2,20.4 54.3,45.6 73.3,67.1 19,21.5 23.6,31.9 33.3,47.4 13.3,22.5 24.9,46.2 33.2,71 6.6,21.6 12.6,43.5 14.8,66 2.5,19.6 3.3,39.4 1.9,59.1 -5,-2 -9.1,-5.5 -13.5,-8.4 -11.2,-8.4 -21.7,-17.7 -30.3,-28.8 -2.4,-3.2 -4.3,-6.8 -5.2,-10.7 9.4,2.7 19.8,6 29.2,1.9 3,-1 5.9,-3.6 5,-7.1 -1.3,-6.4 -8,-8.8 -12.6,-12.3 -14.1,-9.1 -26.9,-20.7 -36,-34.9 -1.1,-1.7 -1.8,-3.7 -2.5,-5.6 7.4,1.3 14.7,5.1 22.4,3.4 2.5,-0.7 6.1,-2.2 5.8,-5.4 0.1,-3.5 -2.6,-5.9 -4.9,-8.1 -10.1,-9.1 -18.6,-19.9 -25.1,-31.9 -5.7,-11.5 -10.1,-23.6 -13.1,-36 -1.1,-4.2 -1.7,-8.8 -4.6,-12.3 -1.9,-2.4 -5.9,-2.8 -8,-0.4 -4.4,4.4 -4.5,11.1 -6.4,16.7 -3.4,13.6 -8.1,27.1 -16,38.9 -4.2,6.4 -9.5,11.9 -14.8,17.4 -2.4,2.5 -6,4.9 -5.4,8.9 -0.1,2.9 3,4.2 5.4,4.4 5.8,0.4 10.6,-3.3 16,-4.6 -5.4,10.2 -13.5,18.6 -21.5,26.7 -3.7,3.1 -7.6,6 -11.4,8.9 0,2.8 0,6.2 2.6,7.9 6.3,3.8 13.8,1.8 20.5,0.6 -2.6,4.8 -6.3,8.6 -9.8,12.7 -0.8,0.7 -2.1,2.9 -3.1,1.3 -8.7,-8.4 -17.7,-16.5 -26.8,-24.4 -2.7,-1.9 -1.9,-5.6 -2,-8.4 0,-17 0.3,-33.9 -0.4,-50.9 -0.2,-2.1 -0.1,-4.3 -0.9,-6.2 -2.7,-3.8 -6.8,-6.6 -11.2,-8 -4.7,-1.6 -9.2,-3.4 -13.9,-5 -5.6,-1.7 -11.4,-2.2 -17.2,-2.2 -11,-0.4 -22,-1.3 -33.1,-1.5 -6.1,-0.4 -11.7,4.8 -12.4,10.7 -0.5,4.5 -0.2,9.1 -0.5,13.6 -5.5,-0.8 -10.7,-3 -16,-4.4 -30.4,-8.7 -61,-17.1 -92.1,-23.2 -2.5,-0.5 -5,-1.1 -7,-2.8 -5.2,-4.1 -9.6,-9 -14.2,-13.7 -3.7,-4 -7.6,-8.1 -10.1,-13 10.4,3 21.4,7.8 32.4,4.9 3.7,-0.5 5.7,-5 3.9,-8.2 -1.9,-2.5 -4.7,-4 -7.1,-5.8 -15.5,-10.5 -30.1,-22.8 -41,-38.1 -2.2,-3.1 -4,-6.4 -4.9,-10.1 5.5,1.1 10.4,4.1 16.1,4.4 4,0.2 9,0 11.6,-3.7 0.8,-4.6 -3.9,-6.9 -6.7,-9.6 -13.9,-11.9 -25.4,-26.9 -32,-44 -2.1,-5.3 -3.6,-10.8 -6.2,-15.8 -1.3,-2.5 -3.1,-5.1 -6,-5.9 -4.2,-1.3 -8.2,2 -9.9,5.6 -3.2,6.9 -6.4,13.7 -9.3,20.7 -5.7,11.7 -13.5,22.2 -21.4,32.6 -2.3,3.1 -5.2,5.5 -7.8,8.2 -1.9,1.7 -1.2,4.4 -1.1,6.6 5.2,1 10.1,-1.3 15,-2.8 5.3,-1.7 9.7,-5.4 14.9,-7.2 -3,8.1 -7.8,15.4 -12.7,22.4 -7.4,9.1 -15.4,17.9 -24.7,25.2 -3.9,3.2 -10.2,3.5 -12.1,8.9 -0.6,4 2,8.7 6.4,9 8.7,1.2 16.5,-3.6 24.3,-6.6 -2.4,8.7 -8.3,15.9 -13.3,23.2 -5.3,8.1 -11.6,15.5 -17.7,23 -1.2,-5.6 -1.6,-12 -5.8,-16.3 -3.5,-2.7 -8.4,0.3 -9.7,4 -4,9.9 -7.9,19.9 -12.6,29.6 -0.1,0 -0.5,0.2 -0.6,0.3 -8.5,-9.6 -17.6,-18.8 -23.6,-30.3 4.9,1.3 9.9,3.2 15,2.4 3.4,-0.7 3.8,-5.4 2.2,-7.8 -4.4,-5.5 -10.3,-9.7 -14.6,-15.4 -10.3,-13.6 -16.5,-29.9 -20.4,-46.5 -0.8,-3.1 -1.5,-6.8 -4.4,-8.7 -3.4,-2 -7.1,1.3 -7.9,4.6 -2.6,9.9 -5.3,19.8 -10.1,28.9 -2.9,5.3 -5.4,11.1 -9.7,15.4 -20.8,-19.7 -32.7,-46.9 -40.2,-74.1 -0.5,-2.5 -1.9,-5.7 0.4,-7.7 8.5,-8.9 17.8,-16.9 27.1,-24.9 12.7,-9.5 25.5,-18.7 39.2,-26.7 11.8,-6.8 24,-12.8 36,-19.1 36.8,-16.8 76.4,-27.2 116.6,-31.2 15.1,-2.2 30.4,-2.6 45.7,-2.8 z"
       id="path1"
       sodipodi:nodetypes="ccccscccccccccccccccccccccccccccccccccccccccccccccccccccccccscccccccccccccccccccccccccccccccccccc" />
    <path
       class="st42"
       d="m 224.5,133.1 c 4.6,20.4 9,41.1 17,60.5 7.2,16.2 16.9,31.7 30.5,43.4 1.1,1.1 2.7,2.2 2.8,4 0,1.9 -2.1,3.3 -3.8,2.8 -11.8,-2.3 -21.1,-10.6 -29.6,-18.5 -0.2,2.3 -0.5,4.7 0.5,6.9 2.7,6.3 5,12.8 8.5,18.7 6.4,11 13.9,21.2 22.7,30.3 6,6 12.7,11.2 19.2,16.7 1.8,1.4 3,3.5 2.7,5.8 -1.8,3.4 -6.4,3.5 -9.8,3.3 -16.1,-1.4 -31.8,-9.3 -42,-22 -2,-2.3 -3.5,-5 -5.9,-6.9 -2.9,1.2 -2.4,5.7 -1.5,8.3 8.5,22.7 23.7,42.5 41.9,58.2 6.1,5 12.7,9.3 19.4,13.6 1.9,1.3 4,2.8 4.8,5.1 0.7,2 -0.7,4.2 -2.7,4.7 -7.8,2.7 -16.3,1.4 -24,-0.8 -8.3,-2.4 -16,-6.8 -22.7,-12.3 -3.3,-2.7 -5.5,-6.6 -9.2,-8.8 -2.2,0 -1.9,2.7 -1.5,4.1 2.3,8.2 6.7,15.7 11.7,22.5 1.4,1.4 0.6,4.5 -1.6,3.7 -6.8,-1.5 -12.2,-6.4 -17.2,-11 -4.8,-4.3 -7.8,-10 -11.6,-15.1 -1,1.1 -2.1,2.2 -2.7,3.6 -5.1,11.3 -8.7,23.4 -14.9,34.2 -4,6.2 -9.4,13.3 -17.3,13.9 -0.2,-2.6 0.5,-5.2 1.6,-7.5 1.6,-3.5 1.9,-7.4 2.1,-11.2 -1.5,0 -3.1,-0.3 -4.3,0.8 -3.6,2.7 -7,5.7 -10.7,8.4 -8.3,6.5 -18.2,11 -28.5,13.2 -6.8,1.5 -13.9,1.2 -20.8,0.8 -2.9,-0.5 -6.9,-1.1 -7.7,-4.5 0.8,-3.3 4,-5.1 6.5,-6.9 19.1,-12 36.7,-26.6 50.9,-44.1 9.1,-10.9 17.4,-22.6 23.4,-35.5 0.8,-2.4 0.8,-5 1.1,-7.5 -1.5,-0.8 -2.8,-2.2 -4.6,-2.2 -2.1,0.8 -3.6,2.4 -5.2,3.9 -8.6,7.9 -19.2,13.5 -30.4,16.7 -6.2,1.6 -12.8,2.5 -19.1,1 -1.9,-0.4 -4.2,-2.3 -3.2,-4.5 1.6,-3.5 5.1,-5.7 8.2,-7.8 15.2,-10 29.4,-21.9 40.5,-36.4 10,-12.4 18.4,-26 24.3,-40.8 1.1,-1.7 -0.2,-3.8 -2.1,-3.9 -1,0.5 -1.9,1.3 -2.7,2.1 -9.3,9.5 -20.2,18.3 -33.3,21.8 -2.6,1.4 -5.6,-1.5 -4.2,-4.1 2,-4.4 6.2,-7.3 9.1,-11.1 13.7,-15.4 23.7,-33.7 31.1,-52.9 1.9,-5.5 3.5,-11.1 5.4,-16.7 3.8,-13.2 5.2,-27 9.1,-40.2 z m -13.3,164.2 c -1.5,3.5 -3,7 -3.4,10.8 -0.1,1.5 1.4,2.4 2.1,3.6 6.3,-4.8 7.3,-13.7 5.7,-21 -2.3,1.5 -3.2,4.2 -4.4,6.6 z"
       id="path2" />
    <path
       class="st42"
       d="m 200.2,420.1 c 8.7,-5.6 15.6,-13.3 22.8,-20.7 7.4,13.5 15.8,26.8 27.9,36.7 3,2 2.6,6 4.2,8.8 2.4,4.4 5.4,8.5 9.4,11.6 2.5,2.1 6.1,3.9 5.9,7.7 -5.3,0.6 -10,-2 -14.7,-4 -10.9,-4.9 -20.7,-12.3 -28.2,-21.6 -1.6,6.7 -2.3,13.9 -5.9,20 -4.5,8.4 -10.2,17.4 -19.8,20.5 0.2,-4 2.5,-7.3 3.4,-11.1 1.6,-6.4 2.4,-13.2 1.1,-19.8 -4.3,2.2 -6.8,6.6 -10.1,10 -5.7,5.9 -12.3,11.4 -20.2,14 -1.6,0.4 -3.7,1 -4.9,-0.4 0,-2.5 1.7,-5.2 0.6,-7.5 -1.4,-0.5 -3,-1 -4.3,0 -3.8,2.5 -7.3,5.6 -11.4,7.6 -13.1,6.4 -28.7,7.1 -42.4,2.5 -3.2,-1.3 -6.9,-2.4 -8.9,-5.4 0.4,-3.6 4.7,-4.5 7.4,-5.8 11.2,-4.2 22.2,-9.3 32,-16.2 12.9,-8.5 23.3,-20.1 35,-30.1 0.9,3.9 -1.7,7.3 -2.1,11.1 0.2,2.3 2.8,1.7 4.4,1.5 6.9,-1.7 13.2,-5.1 18.8,-9.3 z"
       id="path3" />
    <path
       class="st42"
       d="m 864.7,455.2 c 9.1,3 18.3,6.8 28.1,6.3 -1.1,6.8 -1.8,13.6 -3.6,20.2 -6.8,-4.4 -12.7,-10 -17.8,-16.4 -2.5,-3.2 -5.5,-6.2 -6.8,-10.2 z"
       id="path4" />
    <path
       class="st42"
       d="m 143.1,510.1 c 2.6,-2.2 4.8,-4.8 8,-6.2 -5,10.7 -13.2,19.5 -22.1,27.1 -7,5.3 -14.8,11 -23.9,11.4 -2.7,0.4 -7.1,-1.7 -5.6,-4.9 5.4,-4.4 12,-6.9 18.2,-10 8.9,-5.2 17.8,-10.5 25.5,-17.5 z"
       id="path5" />
    <path
       class="st42"
       d="m 863.1,518 c 5.1,-1.1 10.2,1 15.3,1.6 -0.2,5.3 -1.6,10.6 -3.4,15.6 -4.5,-5.3 -7.9,-11.5 -11.9,-17.2 z"
       id="path6" />
    <path
       class="st42"
       d="m 873.3,588.2 c 1.4,-1.2 3.3,-1.2 5,-1.7 3.4,5.5 -1,11.4 -3.9,16 -4.9,7.7 -12.7,12.6 -19.4,18.6 1.2,-5.9 2.4,-12.1 5.6,-17.2 3.5,-5.7 7.4,-11.2 12.6,-15.7 z"
       id="path7" />
    <path
       class="st42"
       d="m 131.5,622.7 c -1.4,-2.9 1.8,-6.8 4.8,-5 8.2,4.5 15,12.8 16.1,22.3 0.4,1.9 -0.9,3.4 -1.6,4.9 -8.7,-4.8 -15.7,-12.9 -19.2,-22.2 z"
       id="path8" />
    <path
       class="st42"
       d="m 833.8,566.1 c 3.5,0.1 7.1,0.3 10.5,1.4 2.9,1.1 5.6,4.1 4.6,7.4 -0.8,3.2 -1.9,6.5 -3.9,9.2 -2,-0.7 -2.3,-3.3 -3.3,-4.9 -2,-4.8 -5.2,-8.8 -7.9,-13.1 z"
       id="path9" />
    <path
       class="st42"
       d="m 874.8,641.8 c 4.3,-3.3 9.6,-6.2 15.2,-5.7 2.4,-0.1 4.2,2.9 3.2,5 -0.6,2.6 -3.4,3.6 -5.6,4.6 -4.6,1.6 -9.6,1.7 -14.4,1 -0.1,-1.8 -0.2,-3.8 1.6,-4.9 z"
       id="path10" />
  </g>
  <g
     id="g13"
     style="display:inline">
    <path
       class="st94"
       d="m 409,618.1 c 24.1,-1.4 48,-4.5 72.1,-4.8 -6.1,1 21.8,12.9 28.3,12.1 9.5,-1.4 19.2,-1.1 28.8,-2.5 2.1,3.7 4.4,7.5 7.6,10.5 1.2,1.4 3.2,2.5 3.1,4.6 1,6.5 -2.1,13.2 0.5,19.5 1.1,5.4 2.5,10.8 5.9,15.3 2,2.1 -0.9,3.7 -2.5,4.8 -4.1,2.7 -6.2,7.7 -5.5,12.4 0.6,3 -3.2,2.5 -5.1,2.9 -9,0.6 -15,8.2 -20.8,14.2 -2.3,2.9 -5.6,4.7 -9.2,5.3 -4.7,-0.6 -9.2,-2.1 -14,-2.1 -5.9,0 -11.9,0.9 -17.6,2.5 0.6,-3.1 0.6,-6.5 -1.2,-9.2 -3.2,-2.8 -7.8,-0.3 -10.5,2.1 -1.9,3.8 -1.5,8.4 -3.9,12.1 -3.7,-3.2 -8.7,-6.3 -13.8,-4.8 -3.2,0.9 -3.1,6.1 -7,5.7 -5.8,-0.1 -11.5,0.9 -17,2.4 -0.9,-13.6 -1.3,-27.2 -2.6,-40.8 -0.6,-5.9 -2.5,-11.9 -6.7,-16.2 -3.5,-3.6 -7.4,-6.8 -11.8,-9.3 -11.9,-5.9 -25,-8.6 -38,-10.7 -13.6,-2 -27.3,-4.1 -41.1,-4.4 -0.7,-5 0.4,-10 2,-14.7 0.4,-2.3 3.3,-1.6 5,-2 25,-1.2 50,-3.1 75,-4.9 z"
       id="path11" />
    <path
       class="st133"
       d="m 430,644 c 3.6,-1.7 7.8,-2 11.7,-1.7 2.1,1.4 0.7,4.4 0.8,6.6 -4.3,1.6 -8.9,2.1 -13.5,2 -1,-2.2 -1,-5.2 1,-6.9 z"
       id="path12" />
    <path
       class="st99"
       d="m 481.1,613.3 c 9.9,-0.9 19.9,-0.4 29.9,-0.3 8.2,-0.2 16.5,0 24.7,0 0.6,3.3 1.5,6.6 2.4,9.9 -9.5,1.4 -19.2,1.1 -28.8,2.5 -6.4,0.9 -13.1,1.5 -18.8,5 3.4,2.4 7.6,3 11.7,3.2 9,0.5 18.3,1 26.7,4.6 2.3,1.2 5.2,3.6 3.8,6.5 -2.2,5.2 -8.1,7 -12.9,9 -17,7 -36.6,8.1 -51.5,19.6 -3.2,1.9 -2.1,5.9 -1.7,8.9 -6.4,1.3 -13.1,0.9 -19.5,-0.3 -3.1,-0.6 -6.3,-2.2 -7.5,-5.2 -0.8,-3.8 1.2,-7.7 4.3,-9.8 6.7,-5 15.2,-5.8 22.9,-8.1 8.7,-2.6 17.6,-4.9 25.4,-9.5 2,-1.1 4.4,-3.1 3.3,-5.6 -2.4,-3.3 -6.7,-4.4 -10.5,-5.6 -11,-3.1 -22.8,-2 -33.7,-5.4 -2,-0.9 -5.3,-1.8 -5.2,-4.5 4.1,-5.3 10.8,-7.8 17.1,-9.9 6,-1.5 11.8,-3.9 17.9,-4.9 z"
       id="path13" />
  </g>
  <g
     id="g116"
     style="display:inline">
    <g
       id="g31">
      <path
         class="st91"
         d="m 464.1,325 c 5.7,-0.2 11.5,0.6 17.1,-0.8 -5.4,-5.1 -10.5,-10.5 -16.3,-15.1 -2.1,-1.7 -4.2,0.9 -5.7,2.1 -4.6,4.9 -9.9,8.8 -14.5,13.7 6.4,1.2 12.9,0 19.3,0.2 z"
         id="path28" />
      <path
         class="st91"
         d="m 428.8,361 c 4.8,0 9.6,-0.6 14.4,-0.6 17.6,0 34.8,0 51.9,-1.3 8.4,0.3 16.8,-0.2 25.2,-0.2 -2,-3.4 -5.8,-5.1 -8.6,-7.7 -6.1,-5.1 -11.9,-10.7 -17.7,-16.1 -8.7,-0.2 -17.5,-0.3 -26.2,0.8 h -0.3 c -3.8,0 -7.6,0.1 -11.2,0.1 -6.8,-0.2 -13.5,0.5 -20.3,0.3 -1.6,0.1 -3.4,-0.3 -4.6,0.9 -3.7,3.3 -6.8,7.2 -10.5,10.6 -4.4,4.4 -9.4,8.2 -13,13.3 6.9,0.7 13.9,0 20.9,-0.2 z"
         id="path29" />
      <path
         class="st91"
         d="m 393.7,399.3 c 22.9,-0.3 124.5,-2.8 130.3,-2.8 3.5,0 7.1,0 10.6,-0.3 7.9,-0.1 15.8,-0.4 23.6,-0.7 -0.5,-3 -3.2,-4.7 -5.2,-6.5 -5.5,-4.5 -10.2,-9.9 -15.6,-14.4 -3.2,-2.5 -5.9,-6.5 -10.4,-6 -7.7,0 -15.4,0.3 -23,0.6 -12.4,-0.2 -76.4,2.1 -82.8,2.7 -7,0.4 -14,1 -21,0.7 -2.6,0.3 -5.9,-0.7 -7.9,1.6 -2.8,2.8 -5.6,5.8 -8.3,8.7 -5.3,5.8 -11.4,11 -16.3,17.2 8.7,0.6 17.3,-0.9 26,-0.8 z"
         id="path30" />
      <path
         class="st91"
         d="m 587.4,425.8 c 0.7,-1.2 1.4,-2.4 2.1,-3.5 -4.1,-5.4 -8.7,-8.2 -13.4,-13.2 -2.2,-2.8 -6,-2 -9.1,-2.1 -6.1,0.3 -12.2,0.7 -18.3,1.2 -9.5,0 -164.1,5.5 -168.5,5.6 -8.1,0 -16.1,0.6 -24.2,0.6 -6.2,-0.5 -10.1,5.3 -13.6,9.6 0.8,2.3 1.6,4.4 2.6,6.7 1.3,2.3 2.6,4.7 4.2,6.9 0.8,1.1 1.8,1.9 3,2.4 0.7,2.3 221.2,-4 226.8,-4.4 2,0.1 2.9,-1.5 3.9,-3 1.6,-2.2 3.1,-4.5 4.5,-6.8 z"
         id="path31" />
    </g>
    <path
       class="st147"
       d="m 401.2,458.9 c 4.2,0 8.5,0.1 12.8,0.1 -0.3,10.4 1,20.7 0.8,31.1 -7.4,0.3 -14.9,0.4 -22.3,0.9 3.4,-10.6 7.4,-21.1 8.7,-32.1 z"
       id="path32" />
    <path
       class="st51"
       d="m 451.1,267.1 c 1.1,0 2.2,0 3.3,0.4 9.2,4.3 16.7,11.2 24.2,17.9 11.9,10.8 24.2,21.1 35.9,32.1 27.5,25.9 55.3,51.4 83.2,76.7 5.1,4.9 10.7,9.3 15.6,14.4 6.8,6.9 14,13.4 20.7,20.2 3.8,3.8 7,8.5 11.9,11 -4.2,2.5 -9.1,0.6 -12.5,-2.3 -9.4,-7.9 -18.1,-16.6 -27.1,-24.9 -18.9,-16.4 -36.6,-34.1 -55.5,-50.5 -27.6,-25.7 -55.5,-51.1 -83,-76.9 -5.7,-5.5 -12.6,-10.2 -16.9,-17 v -1.1 z"
       id="path33" />
    <path
       class="st49"
       d="m 507.7,276.1 c 5.2,1 10.2,2.7 15.3,3.8 4.7,1.3 10,1.8 13.7,5.3 7.6,6.5 16.4,11.8 22.6,19.8 -6.3,0.2 -12.3,-2.3 -18.4,-3.4 -3.2,-0.8 -7,-0.7 -9.5,-3.2 -5.4,-5 -11.1,-9.6 -16.2,-14.8 -2.5,-2.6 -5.7,-4.4 -7.5,-7.6 z"
       id="path34" />
    <path
       class="st129"
       d="m 657.7,280.2 c 0.2,0 0.7,0 0.9,0 9.1,1 18.3,-0.4 27.4,1.2 1.6,0.4 4.2,0.3 4.2,2.5 0.7,4.8 0.2,9.6 0.1,14.4 -5.4,0 -10.8,-0.9 -16.2,-1 -6.4,-0.2 -13,0.7 -19.2,-1.1 -0.1,-5 -1.2,-10.5 2.1,-14.7 0.1,-0.2 0.4,-0.7 0.5,-1 z"
       id="path35" />
    <path
       class="st34"
       d="m 658.6,280.3 c 7.4,-0.7 14.9,0 22.4,-0.2 3.1,0.5 7.6,-0.9 9.5,2.3 1.6,5.3 0.7,11 0.9,16.4 -11.5,0 -23,0 -34.4,-1 -3.3,0.2 -3,-3.5 -3.1,-5.8 0.2,-4 -1.1,-9.7 3.6,-11.5 -0.1,0.2 -0.4,0.7 -0.5,1 -3.4,4.2 -2.2,9.8 -2.1,14.7 6.2,1.8 12.8,1 19.2,1.1 5.4,0 10.8,1 16.2,1 0,-4.8 0.6,-9.6 -0.1,-14.4 0,-2.3 -2.6,-2.1 -4.2,-2.5 -9,-1.6 -18.3,-0.2 -27.4,-1.2 z"
       id="path36" />
    <path
       class="st34"
       d="m 369.4,500 c 0.1,-2.8 -1.6,-5.1 -2.8,-7.4 1.9,1.3 3.6,3 3.5,5.5 0.3,7.7 0.3,15.4 0,23.1 -5.2,0.5 -10.4,0 -15.5,-0.6 4.9,-0.1 9.8,-0.2 14.7,-0.3 0.3,-6.8 0.2,-13.6 0.1,-20.4 z"
       id="path37" />
    <path
       class="st2"
       d="m 553.7,287.8 c 3.2,-0.5 6.2,1.2 9.2,1.8 7.4,1.6 14.6,4 22.1,5.4 2.6,0.6 5.4,0.9 7.5,2.6 6.5,5.1 12.2,11.1 19.1,15.8 1.1,0.8 2,1.8 3,2.8 -1.5,0.3 -3,0.4 -4.5,0 -9.5,-2.2 -19.1,-3.6 -28.6,-5.7 -4.3,-1.6 -7.6,-5 -11.3,-7.6 -5.6,-4.9 -11.7,-9.3 -16.5,-15 z"
       id="path38" />
    <path
       class="st2"
       d="m 544.5,311.8 c 8.3,1 16.4,3.6 24.5,5.3 8.1,1.7 16,4 24,5.8 1.8,0.3 3.4,1 4.8,2.2 6.8,5.5 13,11.7 19.8,17.2 2,1.7 4.3,3.2 4.7,6 -2.2,0 -4.3,-0.1 -6.4,-0.5 -12.8,-2.6 -25.8,-4.5 -38.7,-7 -11.3,-9.1 -22.1,-19 -32.7,-29 z"
       id="path39" />
    <path
       class="st2"
       d="m 592.9,355.1 c 1.1,-0.4 2.2,-0.9 3.3,-0.4 5.8,1.5 12.4,1.8 17,6.1 6.4,5.6 12.6,11.4 19.1,16.9 1.9,1.6 3.7,3.4 5,5.6 -4.4,0 -8.9,-0.4 -13.3,-0.7 -2,0 -3.6,-1.4 -5.1,-2.6 -9.3,-7.6 -17.6,-16.4 -26.1,-24.9 z"
       id="path40" />
    <path
       class="st2"
       d="m 624.8,360.1 c 2.4,0 4.9,0 7.3,0.7 10.4,2.8 21.2,3.8 31.6,6.6 3.1,0.8 5.5,3.1 7.9,5 3.9,3.1 7.5,6.5 11.3,9.7 3.9,3.4 8.3,6.4 11.2,10.8 -4.3,-0.1 -8.6,-0.6 -12.8,-1.4 -8.3,-1.6 -16.8,-2.4 -25.2,-4 -1.7,-0.3 -3.1,-1.2 -4.3,-2.4 -6.7,-6.3 -14.1,-12 -21.1,-17.9 -2.4,-2.1 -5.3,-3.9 -6,-7.2 z"
       id="path41" />
    <path
       class="st86"
       d="m 702.4,292 c 0,-1.8 2.2,-1.9 3.5,-2.2 2.6,-0.4 4.6,1.6 6.7,2.8 0.3,4.7 0.9,9.5 0.1,14.2 l -0.7,0.6 c -2.9,-1.5 -5.8,-3.1 -8.6,-4.8 -1.3,-3.3 -1.3,-7.1 -1.1,-10.6 z"
       id="path42" />
    <path
       class="st86"
       d="m 703.1,343.1 c 3.6,0.4 8.6,0.6 10.5,4.2 0.2,5.2 0.8,10.6 -0.3,15.8 -3.4,-0.5 -6.7,-1.3 -9.9,-2.5 -0.8,-5.8 -1.1,-11.6 -0.4,-17.4 z"
       id="path43" />
    <path
       class="st121"
       d="m 611.3,302.5 c 4.7,-0.3 9.2,1.3 13.7,2.2 4.7,1.1 9.5,1.6 14.1,3.3 0.2,4.8 -0.4,9.6 -0.6,14.4 -3.6,1.9 -6.9,-1.6 -9.4,-3.7 -5.9,-5.4 -12.8,-9.9 -17.8,-16.3 z"
       id="path44" />
    <path
       class="st121"
       d="m 683.9,369.3 c 7.4,1.7 15.1,2.2 22.5,4.3 5.9,4 10.3,9.8 16.1,14.1 4.1,3.5 8.8,6.4 11.7,11.1 -5.4,0.6 -10.8,-0.6 -16.1,-1.3 -3.9,-0.5 -7.8,-1.8 -10.7,-4.6 -7.4,-6.7 -15.6,-12.5 -22.9,-19.2 -1.7,-1 -1,-2.8 -0.5,-4.3 z"
       id="path45" />
    <path
       class="st121"
       d="m 726,378 c 6.5,-1.9 14,0.3 18.6,5.4 7.3,7.3 16.6,12.8 22.4,21.5 -5.1,0.3 -10.1,-1.4 -14.9,-2.8 -2.9,-0.8 -4.8,-3.2 -7.1,-4.9 -5.6,-4.1 -10.6,-8.8 -15.7,-13.4 -1.8,-1.5 -3,-3.4 -3.2,-5.8 z"
       id="path46" />
    <path
       class="st90"
       d="m 653.6,307.4 c 0.6,-2.8 4.1,-2.9 6.4,-2.9 10.3,0.5 20.7,-0.4 30.9,1.6 1.6,6 0.7,12.2 0.5,18.3 -12.5,-0.2 -24.9,-0.3 -37.4,-0.6 h -0.7 c 0,-5.5 -0.3,-11 0.2,-16.4 z m 19.2,-1.1 c -0.3,4.1 4.5,5.2 7.6,4.1 0.7,-1.4 -1.1,-2.8 -1.6,-4.1 -2,0 -4,0 -6,0 z"
       id="path47" />
    <path
       class="st62"
       d="m 672.8,306.3 c 2,0 4,0 6,0 0.5,1.3 2.3,2.7 1.6,4.1 -3.1,1.1 -7.9,0 -7.6,-4.1 z"
       id="path48" />
    <path
       class="st85"
       d="m 702.1,316.9 c 3.7,0.1 7.4,1.3 10.2,3.8 1,4.1 0.3,8.4 0.4,12.5 -3.6,-0.1 -7.9,-0.8 -9.9,-4.2 -1,-3.9 -0.5,-8.1 -0.7,-12.1 z"
       id="path49" />
    <path
       class="st110"
       d="m 654,323.8 c 12.5,0.3 24.9,0.5 37.4,0.6 0,7.5 0,15.1 0.1,22.6 -0.1,2 0.3,4.6 -1.6,6 -3.3,-0.3 -6,-2.3 -8.6,-4.2 -5.1,-4.1 -10,-8.4 -14.7,-13 1.4,-0.3 2.8,-0.2 4.1,-1 0.6,-1.5 0.8,-3.2 0.6,-4.9 -2.8,-3.3 -7.5,-1.2 -11.2,-2 -2.1,-1.3 -4,-2.8 -6,-4.1 z"
       id="path50" />
    <path
       class="st19"
       d="m 612.6,326.9 c 11.6,1.6 23,4.5 34.5,7 1.8,0.4 3.7,0.7 5,2 6,5.3 12.2,10.4 18.5,15.4 2.4,2 5.5,3.6 6.6,6.8 -5.2,0.8 -10.1,-1.6 -15.2,-2.3 -7.1,-1 -14,-2.6 -21,-3.9 -3.4,-0.6 -5.6,-3.5 -8.1,-5.6 C 626.1,340 617.7,335 612.7,327 Z"
       id="path51" />
    <path
       class="st19"
       d="m 686.9,403.4 c 3.1,-0.1 6.3,0.3 9.3,1.1 9.4,2.3 19.2,2.6 28.6,4.8 4.7,2.3 7.8,6.7 11.8,10 5.5,5.7 12.1,10.2 17.9,15.7 -8.2,-0.3 -16.2,-2.5 -24.4,-2.9 -4.6,-0.8 -10.1,0.2 -13.7,-3.4 -9.8,-8.5 -19.7,-16.8 -29.4,-25.4 z"
       id="path52" />
    <path
       class="st31"
       d="m 660.1,327.9 c 3.7,0.7 8.4,-1.3 11.2,2 0.1,1.6 0,3.3 -0.6,4.9 -1.2,0.8 -2.7,0.7 -4.1,1 h -0.4 c 0,-0.7 0.2,-1.5 0.3,-2.3 -2.2,-1.8 -4.4,-3.6 -6.5,-5.5 z"
       id="path53" />
    <path
       class="st76"
       d="m 636.8,395.1 c 9.1,0 18.1,2.3 27.1,3.7 3.9,0.8 8.2,1.1 11.3,4 9.3,8.2 19.3,15.7 28.1,24.4 -0.1,0.3 -0.4,1 -0.5,1.3 -10.7,-0.3 -21.2,-2.2 -31.8,-2.9 -2.5,0 -4.5,-1.6 -6.2,-3.4 -6.2,-6.1 -13.5,-11.1 -19.4,-17.6 -2.8,-3.2 -6.3,-5.8 -8.6,-9.5 z"
       id="path54" />
    <g
       id="g57">
      <path
         class="st100"
         d="m 443.2,360.4 c 17.6,0 34.8,0 51.9,-1.3 -0.4,-0.3 -1.2,-0.9 -1.6,-1.2 -8.7,-7.2 -17.6,-14.1 -25.7,-22 h -0.3 c -3.8,0 -7.6,0.1 -11.2,0.1 -7,7.4 -24.6,23.2 -27.5,24.9 4.8,0 9.6,-0.6 14.4,-0.6 z"
         id="path55" />
      <path
         class="st100"
         d="m 524,396.5 c 3.5,0 7.1,0 10.6,-0.3 -4.4,-3.9 -8.9,-7 -13.3,-11.1 -4.4,-4.1 -11.4,-10.7 -17.3,-15.9 -12.4,-0.2 -76.4,2.1 -82.8,2.7 -8.5,9.1 -16.7,17.2 -25.7,25.9 -0.4,0.4 -1.3,1.2 -1.8,1.5 22.9,-0.3 124.5,-2.8 130.3,-2.8 z"
         id="path56" />
      <path
         class="st100"
         d="m 548.7,408.1 c -9.5,0 -164.1,5.5 -168.5,5.6 -3.5,5.4 -8.6,9.4 -12.4,14.5 26.1,-0.4 52.1,-1.3 78.2,-1.9 21.7,0 43.3,-1.2 65,-1.7 17.8,-0.6 35.7,-0.3 53.5,-1.3 -4.9,-5.5 -11.5,-9.2 -15.9,-15.2 z"
         id="path57" />
    </g>
    <path
       class="st139"
       d="m 504.3,458.7 c 0.3,2.4 0.4,4.8 0.4,7.2 -0.2,27.3 -0.2,54.7 -0.2,82.1 -0.2,14.8 0.3,29.5 -0.2,44.3 -0.8,-11.1 -0.4,-22.2 -0.7,-33.3 0,-33.4 0,-66.8 0.6,-100.2 z"
       id="path58" />
    <path
       class="st139"
       d="m 570.3,493 c -0.1,-3.8 0,-7.6 0.4,-11.4 0.2,12.8 0,25.5 0.4,38.3 -0.2,5.5 0.7,11 -0.5,16.4 -0.4,-14.5 0,-28.9 -0.4,-43.4 z"
       id="path59" />
    <path
       class="st139"
       d="m 367.4,557.8 c 10.5,1 21.1,0.5 31.6,0.6 25.7,0 51.4,0 77.1,0 4.5,-0.1 8.9,-1.3 13.4,-0.6 -7,1.7 -14.4,1 -21.5,1.3 -28.3,1 -56.6,0.2 -84.9,0.4 -5.8,-0.2 -11.6,-0.5 -17.4,-0.8 0.4,-0.2 1.3,-0.6 1.8,-0.9 z"
       id="path60" />
    <path
       class="st61"
       d="m 742.6,411.7 c 9,0.3 17.7,2.7 26.6,3.6 4.7,0.7 9.9,0.8 13.9,3.7 8.7,6.9 17.5,13.8 25.9,20.9 1,0.9 1.7,2 2.5,3.1 -9,-0.3 -17.7,-2.6 -26.5,-3.7 -5.4,-1.1 -11.5,-0.6 -16.1,-4.2 -6.6,-5 -12.5,-10.8 -19,-15.9 -2.5,-2.4 -6,-4.1 -7.4,-7.5 z"
       id="path61" />
    <path
       class="st37"
       d="m 349.4,428.4 c 6.2,-0.6 12.3,0.7 18.5,-0.2 -1.9,2.2 -3.7,4.5 -5.3,6.9 -4.5,0.3 -9.6,-0.9 -13.3,2.4 -1.6,-2.2 -2.9,-4.5 -4.2,-6.9 1.4,-1 2.5,-2.2 4.3,-2.3 z"
       id="path62" />
    <path
       class="st22"
       d="m 598.3,429.2 c 2.6,-1.7 5,1.1 6.7,2.8 4.6,5.2 10.5,9.2 14.3,15.1 -0.3,4.7 -3.6,10.5 -8.9,10.4 -3.4,-0.2 -6.9,-0.5 -10.1,-1.9 -3.9,-3.1 -6.7,-7.7 -7.7,-12.6 -1.4,-5.2 2.1,-10.4 5.7,-13.9 z"
       id="path63" />
    <path
       class="st142"
       d="m 321.4,432.4 c 3.1,-2.5 7.9,-2.2 10.6,0.7 6,6 6.4,16.2 2.2,23.4 -0.4,-0.5 -1.3,-1.4 -1.7,-1.9 -7,-1.6 -14.1,-5.5 -17.2,-12.3 1.2,-3.7 2.8,-7.6 6.1,-9.8 z"
       id="path64" />
    <path
       class="st100"
       d="m 566,430.4 c -14.4,-0.2 -28.7,1 -43,1 -8,-0.2 -15.9,0.9 -23.9,0.6 -19.4,0.1 -38.7,0.7 -58.1,1.3 -16.7,0 -33.3,1.2 -50,1.4 -9.5,0 -18.9,0.5 -28.4,0.6 -4.5,0.3 -9.6,-0.9 -13.3,2.4 0.8,1.1 1.8,1.9 3,2.4 0.7,2.3 221.2,-4 226.8,-4.4 2.4,0.2 3.3,-2.4 4.5,-4 -5.7,-2 -11.7,-1.2 -17.6,-1.2 z"
       id="path65" />
    <path
       class="st140"
       d="m 315,449 c 0,-2.3 0.2,-4.5 0.3,-6.8 3.1,6.9 10.1,10.8 17.2,12.3 0.4,0.5 1.3,1.4 1.7,1.9 -2.2,2.6 -5.4,5.2 -9.2,4.3 -5.8,-0.6 -9.8,-6.2 -10,-11.7 z"
       id="path66" />
    <path
       class="st128"
       d="m 509,449.9 c 18,-0.8 36,-2.2 54.1,-1.8 4.4,-0.4 6.7,4.2 7,7.9 0.8,8.5 1.4,17.1 0.6,25.6 -0.5,3.8 -0.6,7.6 -0.4,11.4 0.3,14.4 0,28.9 0.4,43.4 v 0.2 c -5.9,4.7 -12.1,9.2 -17.3,14.7 -10.7,12.7 -18.5,28.6 -18.6,45.5 -8.3,0.1 -16.5,0.3 -24.8,0.2 -2.6,0.1 -6.5,-1.4 -5.6,-4.7 0.5,-14.7 0,-29.5 0.2,-44.3 0,-27.4 0,-54.7 0.2,-82.1 0,-2.4 -0.2,-4.9 -0.4,-7.2 -0.3,-2.8 -0.5,-5.9 1.2,-8.3 1.2,-0.3 2.4,-0.5 3.6,-0.6 z m 37.1,10.1 c -0.4,11.6 0,23.3 -0.2,35 3.2,2.8 8.6,3.4 12.2,1 l -0.2,1.5 c 0.9,-1 2,-1.9 1.9,-3.4 0,-10 0,-20.1 0.2,-30.1 0,-1.5 -0.3,-3 -0.8,-4.4 l -0.8,2.7 c -0.3,-2.1 -0.8,-5.3 -3.4,-5.5 -3.1,-0.3 -7.7,-0.4 -8.9,3.1 z m -25.5,3.3 c -0.2,-0.5 -0.5,-1.5 -0.6,-2 -0.8,1.1 -1.3,2.3 -1.3,3.6 -0.2,6.1 -0.8,12.1 -1.2,18.1 -1.5,-4.1 -0.4,-8.5 -0.5,-12.8 -1.3,0.3 -2.6,0.6 -3.9,1 -0.4,4.5 -0.7,9.3 1,13.6 0.7,2.1 2.9,2.8 4.4,4.4 0.3,2.7 -0.3,5.7 1.5,8.1 0,-0.6 0.3,-1.9 0.4,-2.5 0.2,0.4 0.7,1.2 1,1.7 h 0.8 v 1.5 c 5.3,0 11.9,1 16.3,-2.9 l -1.4,0.3 c 0.2,-0.4 0.6,-1.2 0.8,-1.7 l 1.1,0.3 c 0.7,-9.3 0,-18.6 0.4,-27.9 0,-2.8 0.6,-6 -1.2,-8.5 v 1.5 c -3.9,-2.9 -9.4,-1.5 -13.9,-1.2 -3.1,-0.3 -3,3.4 -3.4,5.4 z m 0.7,50.2 c -5.8,-0.1 -9.1,6.4 -8,11.6 0.4,3.9 3.1,8.8 7.7,8.1 5.4,-0.4 7.5,-6.5 7.2,-11.2 0.3,-4.1 -2.4,-8.7 -6.9,-8.5 z m 26,5.5 c -2,10.3 -0.7,21 1.1,31.2 3.4,-0.8 2.8,-4.6 2.9,-7.2 -0.1,-8.6 0.1,-17.2 -0.6,-25.8 -1.5,-1.4 -3.2,0.1 -3.4,1.8 z m -21,38.4 c -0.9,1.5 -0.8,3.3 -0.9,4.9 -0.3,8.2 -0.4,16.5 0.5,24.7 -0.2,1.9 1.8,2.2 3,3 2.4,-10.9 3.9,-22.3 2.6,-33.5 -1.7,0 -3.8,-0.5 -5.2,0.8 z"
       id="path67" />
    <path
       class="st127"
       d="m 476.4,450.5 c 4.8,-0.6 9.7,-0.8 14.5,-0.2 2.8,1 3.2,4.3 3.3,6.8 -7.5,0.4 -15,0.2 -22.4,1.7 0.4,-3.1 0.8,-7.6 4.6,-8.4 z"
       id="path68" />
    <path
       class="st126"
       d="m 579.2,449.9 c 1.2,0.3 2.7,0.3 3.5,1.5 2.1,2.7 3.9,5.6 5.1,8.8 0.3,3 0.1,6.1 -0.6,9.1 -1.5,2.9 -3.4,6.1 -7.1,6.1 -1.3,-8.4 -2.3,-17 -0.9,-25.4 z"
       id="path69" />
    <path
       class="st112"
       d="m 351.8,452.7 c 4.7,-0.3 9.6,-0.7 14.3,0 3.5,0.4 4.3,4.4 4.5,7.3 0.1,6.7 0.3,13.4 -0.8,20 -5.6,0.1 -11.3,0 -16.8,-0.8 -3.6,-0.3 -6.4,-3.7 -6.2,-7.2 -0.5,-6.5 -0.3,-14.6 5.1,-19.2 z m 7,14.5 c 0.8,1.2 1.4,2.6 2.6,3.4 2.1,0.2 4.2,-0.5 6.3,-0.8 -0.7,-1.5 -0.5,-3.6 -2.1,-4.4 -2.4,0 -4.6,1 -6.8,1.8 z"
       id="path70" />
    <path
       class="st149"
       d="m 471.8,458.9 c 7.4,-1.5 14.9,-1.3 22.4,-1.7 -0.4,6 0.2,12 -0.5,17.9 -0.8,3.3 -4.9,3.6 -7.7,3.7 -4.9,-0.1 -9.9,0.6 -14.6,-1.1 0.4,-6.3 -0.2,-12.6 0.4,-18.9 z"
       id="path71" />
    <path
       class="st134"
       d="m 546.1,460 c 1.2,-3.5 5.8,-3.4 8.9,-3.1 2.6,0.2 3.2,3.4 3.4,5.5 0.1,5.9 0,11.8 0,17.6 0,5.3 0.6,10.7 -0.3,16 -3.6,2.4 -9,1.8 -12.2,-1 0.2,-11.7 -0.2,-23.3 0.2,-35 z"
       id="path72" />
    <path
       class="st79"
       d="m 520.6,463.3 c 0.4,-2.1 0.3,-5.7 3.4,-5.4 4.5,-0.3 10,-1.8 13.9,1.2 -0.3,11.5 0.4,23.1 -0.2,34.6 -0.2,0.4 -0.6,1.2 -0.8,1.7 -4.9,1.1 -9.9,1.2 -14.9,1.1 h -0.8 c -0.2,-0.4 -0.7,-1.2 -1,-1.7 -0.4,-10.5 -0.4,-21 0.4,-31.4 z"
       id="path73" />
    <path
       class="st148"
       d="m 537.9,457.6 c 1.8,2.4 1.1,5.6 1.2,8.5 -0.4,9.3 0.3,18.6 -0.4,27.9 l -1.1,-0.3 c 0.6,-11.5 0,-23.1 0.2,-34.6 v -1.5 z"
       id="path74" />
    <path
       class="st56"
       d="m 387.4,459.1 c 4.6,-0.4 9.2,-0.2 13.9,-0.2 -1.2,11.1 -5.3,21.6 -8.7,32.1 -1.8,-0.1 -3.7,-0.2 -5.5,-0.4 -0.1,-10.5 -0.2,-21 0.3,-31.5 z"
       id="path75" />
    <path
       class="st119"
       d="m 426,459 c 9.3,0 18.6,-0.3 27.8,0.3 0.4,10.5 0.5,20.9 1,31.4 -8.3,-0.1 -16.6,0.2 -24.9,-0.1 -1.1,-0.3 -3.1,0.3 -3.3,-1.3 -1.3,-10 -0.2,-20.2 -0.7,-30.3 z"
       id="path76" />
    <path
       class="st119"
       d="m 387.5,505.9 c 0.2,-1.5 0.4,-4 2.5,-3.7 8.1,0 16.3,0 24.5,-0.2 1,12.2 0.5,24.6 0.5,36.8 -8.3,0.2 -16.6,0.2 -24.9,0 -2.1,0 -2.1,-2.5 -2.2,-4 -0.5,-9.7 -1.2,-19.4 -0.3,-29 z"
       id="path77" />
    <path
       class="st119"
       d="m 454.6,502.5 c 1.1,9.8 -0.1,19.7 0.8,29.5 -0.1,1.8 0.9,4.8 -1.3,5.7 -4.6,1.1 -9.4,0.8 -14,1.1 -4.3,0 -8.8,0.6 -13,-0.5 0,-4.8 -1.1,-9.5 -1.1,-14.3 0,-6.6 0,-13.3 0,-19.9 h 0.2 c 9.3,-0.4 18.5,-0.4 27.8,0 l 0.5,-1.6 z"
       id="path78" />
    <path
       class="st12"
       d="m 559.2,459.6 c 0.5,1.4 0.8,2.9 0.8,4.4 -0.1,10 -0.2,20.1 -0.2,30.1 0.2,1.5 -1,2.4 -1.9,3.4 l 0.2,-1.5 c 0.9,-5.3 0.2,-10.7 0.3,-16 0,-5.9 0.1,-11.8 0,-17.6 l 0.8,-2.7 z"
       id="path79" />
    <path
       class="st30"
       d="m 518.7,464.9 c 0,-1.4 0.5,-2.6 1.3,-3.6 0.2,0.5 0.5,1.5 0.6,2 -0.8,10.5 -0.9,21 -0.4,31.4 0,0.6 -0.3,1.9 -0.4,2.5 -1.8,-2.4 -1.1,-5.3 -1.5,-8.1 -1.4,-1.5 -3.6,-2.3 -4.4,-4.4 -1.7,-4.3 -1.4,-9.1 -1,-13.6 1.3,-0.3 2.6,-0.6 3.9,-1 0.1,4.3 -0.9,8.6 0.5,12.8 0.3,-6.1 1,-12.1 1.2,-18.1 z"
       id="path80" />
    <path
       class="st109"
       d="m 358.8,467.2 c 2.2,-0.8 4.4,-1.9 6.8,-1.8 1.6,0.7 1.5,2.9 2.1,4.4 -2.1,0.4 -4.2,1 -6.3,0.8 -1.2,-0.8 -1.8,-2.2 -2.6,-3.4 z"
       id="path81" />
    <path
       class="st105"
       d="m 635.3,469.3 c 1,-2.8 4.5,-2 6.7,-2.1 3.7,0.4 8.3,-0.1 11.2,2.7 1.1,2.9 0.2,6.2 -0.1,9.2 -5.3,1 -10.7,0.2 -16.1,0 -0.7,-3.2 -1.9,-6.4 -1.7,-9.7 z"
       id="path82" />
    <path
       class="st55"
       d="m 604.4,469.5 c 4.2,-1.5 9.6,-1.1 12.7,2.5 2.7,3.1 4,7.1 4.6,11.1 0.7,4.5 -1.5,8.9 -4.4,12.3 -3.7,4 -9.9,5 -14.8,3.1 -10.7,-5.9 -9.4,-24.5 1.9,-29 z"
       id="path83" />
    <path
       class="st57"
       d="m 675.2,472 c 7,0.4 14.1,0.7 20.8,3.2 0.2,1.1 0.8,2.1 0.7,3.2 -0.6,2.7 -1.1,5.4 -1.1,8.2 -1.6,-0.6 -3.2,-1.3 -4.9,-1.9 -0.7,0.4 -1.5,0.8 -2.2,1.2 0.1,-0.8 0.3,-1.5 0.4,-2.2 -4,0.7 -8.2,0.5 -12.1,2.2 -0.5,-1 -1.1,-2 -1.6,-3.1 -0.4,1.8 -0.7,3.6 -1,5.4 -0.2,-5.5 0.4,-10.9 1,-16.3 z"
       id="path84" />
    <path
       class="st88"
       d="m 322.4,473.4 c 5.2,-1.7 11,1.2 13.1,6.2 2.5,5.5 2.1,12.5 -1.3,17.5 -2.5,3.8 -7.5,5.1 -11.8,4.4 -3.9,-0.9 -5.7,-4.9 -6.6,-8.5 -1,-3.9 -1.1,-8.1 -0.5,-12.1 0.6,-3.7 3.7,-6.3 7.1,-7.6 z"
       id="path85" />
    <path
       class="st88"
       d="m 471.6,532.6 c 1.3,-1.7 3.5,-1.6 5.4,-1.6 3.4,0 6.7,-0.1 10.1,0.3 3.1,0.5 5,3.8 4.9,6.8 0.2,5 0.2,10.1 0,15.1 0,1.8 -1,3.3 -1.9,4.8 h -0.6 c -4.5,-0.8 -8.9,0.4 -13.4,0.5 -25.7,0 -51.4,0 -77.1,0 -10.5,0 -21.1,0.4 -31.6,-0.6 -0.4,0.2 -1.3,0.6 -1.8,0.9 -4.8,0.7 -9.8,0.1 -14.6,-0.4 -4,-0.4 -4.1,-5.2 -4.2,-8.3 0.1,-5.1 -0.5,-10.9 2.9,-15.2 2.1,-3 6.1,-2.3 9.3,-2.6 3.3,0.2 6.9,-0.7 10,0.8 2.6,4.7 -0.6,10.9 2.4,15.6 1.6,1.8 4.1,2.2 6.2,3.1 3.3,1.5 6.9,1.2 10.4,1.2 8,0 16.1,-0.3 24.1,0 6.1,0 12.3,0.4 18.4,-0.7 v 0 c 9.7,1.6 19.6,0.3 29.4,0.4 -0.3,-0.3 -0.8,-0.9 -1.1,-1.2 3.2,-0.9 7.4,0 9.5,-3.1 2.6,-4.8 0.5,-10.9 3.3,-15.7 z"
       id="path86" />
    <path
       class="st125"
       d="m 709.9,476.7 c 8.3,-1.1 17,0.5 24.9,3.4 1.6,5.1 1,10.6 1.1,15.8 0,5.8 0.8,11.7 0.6,17.5 -0.4,1.2 -0.8,2.3 -1.2,3.5 -0.1,-9 0,-18.1 -0.4,-27.1 -0.2,-2.8 -0.4,-5.7 -1.6,-8.3 -6.6,-3.9 -14.6,-3.6 -22.1,-3.6 0,6 0,11.9 0.2,17.9 0,2.2 -0.3,4.5 -1.3,6.5 -0.4,-8.6 -0.8,-17.2 -0.2,-25.8 z"
       id="path87" />
    <path
       class="st122"
       d="m 786,476.9 c 1.6,-0.1 3.4,-1 4.9,0 8.3,4.6 9.9,17.8 3.2,24.4 -1.9,2 -4.7,1.6 -7,0.8 -0.3,-8.4 -0.6,-16.8 -1.1,-25.2 z"
       id="path88" />
    <path
       class="st97"
       d="m 711.3,478.1 c 7.4,0 15.4,-0.3 22.1,3.6 1.2,2.6 1.4,5.5 1.6,8.3 0.4,9 0.3,18 0.4,27.1 0.4,-1.2 0.8,-2.3 1.2,-3.5 0.3,4.9 0.9,10 -0.3,14.8 -2.2,3.1 -6.9,1.3 -10.1,2.1 -0.9,-0.5 -1.8,-1 -2.6,-1.5 2.1,-3.9 1,-8.5 1,-12.7 -0.4,-3.8 -0.4,-8 -2.4,-11.4 -3,-2.6 -7.5,-1.5 -11.2,-1.7 h -1.1 c 0,0 0.2,-0.5 0.2,-0.5 0.9,-2 1.4,-4.3 1.3,-6.5 0,-6 -0.2,-11.9 -0.2,-17.9 z"
       id="path89" />
    <path
       class="st23"
       d="m 760,478.1 c 3.3,0.7 7.7,0 9.9,3 0.5,3.5 0.2,7.1 -0.3,10.6 -2.8,0.9 -6.5,1.5 -9,-0.3 -1.5,-4.3 -0.9,-8.9 -0.6,-13.3 z"
       id="path90" />
    <path
       class="st23"
       d="m 632.8,547.8 c 2.1,-4.5 2.1,-10.3 6.2,-13.6 4.1,-0.4 8.9,-1 12.6,1.1 1,2.5 1.7,5.2 2.4,7.8 6.2,1.4 12.6,0.7 19,0.9 8.4,0 16.7,0.9 25,0.8 18.1,0.2 36,1.9 54.1,2.5 1.9,0 4.5,0.4 5.6,-1.6 0.7,-2.1 0.9,-4.3 1.3,-6.4 3.7,0 7.4,0.4 11.1,0.9 0.5,6.3 0.1,12.6 -0.2,18.9 0,2 -1.4,3.7 -3,4.8 -2.6,0.2 -5.2,-0.3 -7.8,-0.5 -31.3,-2.9 -62.8,-3.4 -94.1,-5.2 -9.3,-0.2 -18.7,-0.9 -28,-1 -2,-2.7 -6.1,-5.6 -4.2,-9.4 z"
       id="path91" />
    <path
       class="st4"
       d="m 695.6,486.6 c 0,-2.8 0.5,-5.5 1.1,-8.2 2.2,12.8 1,25.7 1.3,38.6 -0.2,3.2 0.5,7.4 -2.2,9.8 -6.2,0.4 -12.5,0.8 -18.8,0.3 -1.2,0 -3.2,-0.4 -3,-2 0,-12.3 -0.3,-24.6 0.2,-36.8 0.3,-1.8 0.6,-3.6 1,-5.4 0.5,1 1.1,2 1.6,3.1 3.8,-1.7 8,-1.5 12.1,-2.2 -0.1,0.7 -0.3,1.5 -0.4,2.2 0.7,-0.4 1.5,-0.8 2.2,-1.2 1.6,0.6 3.2,1.3 4.9,1.9 z"
       id="path92" />
    <path
       class="st8"
       d="m 473.1,488.3 h 0.4 c 6.3,1.2 12.7,0.4 19.1,1.4 h 0.6 c 1.6,7.1 0.4,14.3 0.5,21.3 0,2.3 -0.1,5.4 -2.8,6.1 -4.9,1.4 -10.1,0.8 -15.1,0.6 -3.7,0.1 -4.6,-4.4 -5.1,-7.3 -0.2,-5.6 -0.3,-11.3 -0.1,-17 0,-2.1 1,-3.8 2.4,-5.2 z"
       id="path93" />
    <path
       class="st8"
       d="m 597.7,516.7 c 3.3,-4.8 9.8,-6.6 15.4,-5.3 8.2,3.2 12,14.4 6.9,21.8 -3.2,-1.8 -6,-5 -9.9,-5 -5,-0.3 -10,-0.9 -15,-1.5 0,-3.5 0.4,-7.2 2.6,-10 z"
       id="path94" />
    <path
       class="st132"
       d="m 473.5,488.4 c 5.1,-0.6 10.3,-0.5 15.5,-0.4 1.5,-0.2 2.6,0.8 3.6,1.7 -6.3,-1 -12.8,-0.2 -19.1,-1.3 z"
       id="path95" />
    <path
       class="st13"
       d="m 348.4,492.4 c 5.4,-2.8 12.1,-1.2 17.9,-0.3 l 0.2,0.4 c 1.3,2.3 2.9,4.6 2.8,7.4 0,6.8 0.1,13.6 -0.1,20.4 -4.9,0 -9.8,0.1 -14.7,0.3 -4.8,-0.2 -9.3,-4.5 -8.6,-9.5 0.4,-6.1 -1.1,-13.2 2.5,-18.6 z"
       id="path96" />
    <path
       class="st72"
       d="m 579.1,493 c 0,-1.4 1.2,-2.9 2.5,-1.7 4.2,3.7 6.4,9.1 9.3,13.7 -2.5,3.5 -5,7 -7.1,10.6 -0.8,1 -1.3,2.4 -2.7,2.8 -2.3,-0.3 -2,-2.8 -2.2,-4.5 -0.3,-7 -0.9,-14 0.2,-21 z"
       id="path97" />
    <path
       class="st64"
       d="m 637.3,493 c 4.8,-0.5 9.8,0 14.5,1.2 1.6,1.4 1.4,3.8 1.5,5.8 -0.1,6.3 0,12.7 -0.6,19 -0.3,2.2 -2.1,5.1 -4.7,4.5 -2.9,-0.4 -6.2,0 -8.7,-1.6 -1.4,-2.8 -1.4,-6.1 -3.6,-8.5 -1.9,-2.3 -4.2,-4.2 -6.4,-6.3 2.5,-4.7 5.1,-9.4 7.9,-14 z"
       id="path98" />
    <path
       class="st106"
       d="m 522,496.4 c 5,0 10,0 14.9,-1.1 l 1.4,-0.3 c -4.3,3.9 -11,2.8 -16.4,2.9 v -1.5 z"
       id="path99" />
    <path
       class="st18"
       d="m 426.8,502.5 c 9.2,-0.2 18.5,0.4 27.7,0 l -0.5,1.6 c -9.3,-0.4 -18.5,-0.4 -27.8,0 z"
       id="path100" />
    <path
       class="st78"
       d="m 709.9,503.1 h 1.1 c -0.3,7.1 0.6,14.4 -0.8,21.5 -0.6,-7.2 -0.5,-14.4 -0.3,-21.5 z"
       id="path101" />
    <path
       class="st28"
       d="m 711,503 c 3.7,0.2 8.1,-1 11.2,1.7 2,3.4 2,7.5 2.4,11.4 0,4.2 1.1,8.8 -1,12.7 0.9,0.5 1.7,1 2.6,1.5 -5.2,-0.6 -10.8,0.3 -15.8,-1.8 -0.4,-1.3 -0.5,-2.6 -0.2,-3.9 1.4,-7.1 0.5,-14.4 0.8,-21.6 z"
       id="path102" />
    <path
       class="st53"
       d="m 763.2,505.3 c 1.5,-0.1 3.7,-0.8 4.5,0.9 3,5 2.4,11.2 2.2,16.8 -0.2,4.9 -6.5,4.3 -10,3.9 -1.3,-1.6 -0.8,-4 -1,-5.9 0,-4.3 -0.4,-8.8 0.8,-13 0.3,-1.6 1.9,-2.4 3.4,-2.7 z"
       id="path103" />
    <path
       class="st35"
       d="m 317.7,517.7 c 2.2,-7 13.4,-7.7 17,-1.5 2.7,4.8 2.3,10.6 2.2,16 -1.4,0 -2.6,-0.8 -3.1,-2.2 -3,-6.4 -9.2,-11 -16.1,-12.3 z"
       id="path104" />
    <path
       class="st68"
       d="m 521.3,513.5 c 4.5,-0.1 7.2,4.5 6.9,8.5 0.3,4.6 -1.8,10.7 -7.2,11.2 -4.6,0.7 -7.3,-4.2 -7.7,-8.1 -1.1,-5.1 2.2,-11.7 8,-11.6 z"
       id="path105" />
    <path
       class="st143"
       d="m 547.3,519 c 0.1,-1.7 1.9,-3.2 3.4,-1.8 0.7,8.6 0.4,17.2 0.6,25.8 0,2.6 0.5,6.5 -2.9,7.2 -1.7,-10.3 -3.1,-20.9 -1.1,-31.2 z"
       id="path106" />
    <path
       class="st143"
       d="m 651,573.6 c 23.7,-0.3 47.4,1.4 71.1,1.8 12.3,0.7 24.6,0.7 36.9,1.9 2.3,0.6 4.2,2.3 5.8,3.9 2.9,2.6 1,6.9 1.1,10.3 -3.7,-1.2 -6.9,-5.1 -11.2,-3.8 -3.4,1.3 -2.6,5.4 -3.2,8.3 0.1,2.1 -2.4,1.1 -3.6,1.2 -32.3,-3.6 -64.8,-1.6 -97.2,-1.8 -0.3,-7.2 0.2,-14.4 0.2,-21.6 z"
       id="path107" />
    <path
       class="st66"
       d="m 786.3,517.9 c 2.7,0.3 5.8,0.9 7.3,3.4 2.6,4.5 3.4,10.4 1.1,15.3 -1.8,3 -5.1,4.6 -8.5,4.6 0.1,-7.8 0.4,-15.6 0.2,-23.3 z"
       id="path108" />
    <path
       class="st66"
       d="m 787.1,553.5 c 2.4,2 5.2,4.3 5.7,7.5 -0.1,3.6 -2.4,7.2 -5.8,8.6 -0.4,-5.4 -0.4,-10.8 0.1,-16.1 z"
       id="path109" />
    <path
       class="st111"
       d="m 377.6,551.8 c 3.8,-0.5 7.6,-0.3 11.4,-0.2 13.8,0.5 27.7,0 41.6,0.8 -6.1,1 -12.3,0.6 -18.4,0.7 -8,-0.3 -16.1,0 -24.1,0 -3.5,0 -7.2,0.3 -10.4,-1.2 z"
       id="path110" />
    <path
       class="st27"
       d="m 430.5,552.4 c 9.4,-0.7 18.9,-0.6 28.3,-0.9 0.3,0.3 0.8,0.9 1.1,1.2 -9.8,0 -19.7,1.2 -29.4,-0.3 z"
       id="path111" />
    <path
       class="st118"
       d="m 526.3,557.4 c 1.4,-1.3 3.5,-0.8 5.2,-0.8 1.3,11.2 -0.2,22.6 -2.6,33.5 -1.2,-0.8 -3.2,-1.2 -3,-3 -0.9,-8.2 -0.8,-16.5 -0.5,-24.7 0.2,-1.7 0,-3.5 0.9,-4.9 z"
       id="path112" />
    <path
       class="st131"
       d="m 463.1,570.7 c 8.7,-0.2 17.3,-0.9 26,-0.7 2.3,-0.3 3.5,2.1 3.7,4 0.3,3.6 0.6,7.3 0,10.9 -0.1,0.4 -0.4,1.3 -0.5,1.8 -10,-2.7 -20.5,-2.2 -30.7,-3.1 -9.2,-0.4 -18.4,-1.8 -27.6,-1.7 0.1,1.3 0.3,2.7 0.5,4 2.3,1.6 5.2,2.2 7.9,2.8 13.5,2.3 27.2,2.5 40.9,2.7 3.1,0 6.1,-0.3 9.1,-0.7 0,1.1 0.2,2.3 0.2,3.4 v 2.3 c -13.2,1.2 -26.3,0 -39.5,0.4 -15.2,-0.4 -30.5,-0.2 -45.7,-0.9 -1.8,-2.5 -2.8,-5.7 -5.3,-7.6 -3.6,-3.1 -10.3,-1.7 -11.4,3.2 -0.9,1.1 -1,4.7 -3.1,3.6 -0.8,-4.2 -1.2,-8.9 -4,-12.4 -2.9,-3.5 -8.9,-3.6 -11.7,0 -1.6,2.5 -1.5,5.6 -1.9,8.5 -0.4,0.9 0.2,3.4 -1.4,3 -2.1,-3.2 -3.7,-7.4 -7.8,-8.4 -3.3,-0.6 -7.5,1 -8.6,4.5 -0.8,1.7 -1.4,3.5 -2.9,4.6 -1.6,-6 -1.2,-12.3 -0.7,-18.4 0.4,-2.1 0.9,-5.3 3.6,-5.3 8.7,-0.3 17.4,0.7 26,0.2 8,-0.4 16,0.6 24.1,0.4 11.6,-0.2 23.3,0.6 34.9,0 8.7,-0.7 17.4,-0.2 26.2,-0.7 z"
       id="path113" />
    <path
       class="st73"
       d="m 433.8,581.8 c 9.2,0 18.4,1.4 27.6,1.7 10.2,0.9 20.7,0.4 30.7,3.1 0.1,-0.4 0.4,-1.3 0.5,-1.8 0.2,3 0.2,6.1 -0.2,9.1 0,-1.2 -0.2,-2.3 -0.2,-3.4 -3,0.4 -6.1,0.8 -9.1,0.7 -13.6,-0.2 -27.4,-0.5 -40.9,-2.7 -2.7,-0.6 -5.6,-1.2 -7.9,-2.8 -0.2,-1.3 -0.4,-2.7 -0.5,-4 z"
       id="path114" />
    <path
       class="st103"
       d="m 647.9,427.2 c -8.1,-7.1 -28.5,-26.5 -30.8,-28.3 -3.4,-3.9 -7.4,-7.2 -11.2,-10.8 -12.4,-11.3 -52.5,-48.8 -54.4,-50.5 -11,-10.1 -41.1,-37.8 -44.4,-40.5 -1.9,-2.3 -4,-4.6 -6.7,-6.1 -2.7,-3.1 -30.8,-27.9 -32.4,-28.9 -3,-3.3 -6.8,-5.8 -10.2,-8.6 h -0.5 c -3.1,-1.6 -7.5,-2 -10.1,0.7 -3.4,3.3 -6.7,6.7 -9.7,10.3 l -0.3,0.2 c -6.9,6.9 -13.1,14.5 -20.2,21.1 -7.9,7.8 -38.5,37.7 -44.9,45.7 -3.7,3.1 -6.7,6.9 -10.2,10.2 -8.4,8.6 -17.2,16.9 -25.4,25.7 l -0.3,0.2 c -18.6,18.2 -36.7,36.9 -54.9,55.5 l -0.3,0.6 c -3.2,2.9 -6.3,5.8 -9.1,9.1 -1.6,1.3 0,3.1 0.4,4.6 v 0.2 c 0.7,0.5 1.5,1 2.3,1.5 1.8,1.9 4.7,3 6.9,1.2 3.5,-2.8 6.8,-6 9.9,-9.3 l 0.5,-0.2 c 7.2,-6.8 31.9,-33.2 35.8,-37.1 15.2,-15.5 30.8,-30.5 45.8,-46.1 h 0.3 c 6,-5.7 40.4,-41 43.3,-44.5 5.1,-4.5 29.9,-30.8 33.9,-34.8 v -1.1 c 1.2,0 2.3,0 3.4,0.4 9.2,4.3 16.7,11.2 24.2,17.8 11.9,10.8 24.2,21.1 36,32.1 27.5,25.9 55.3,51.4 83.2,76.7 5.1,4.9 10.7,9.3 15.6,14.4 6.8,6.9 14,13.3 20.7,20.2 3.8,3.8 7,8.5 11.9,11 2.4,-1.6 4.6,-3.8 5,-6.8 0.7,-2.5 -1.4,-4.3 -3,-5.8 z"
       id="path115" />
    <path
       class="st37"
       d="m 583.1,423.5 c -6.1,-0.6 -12.3,0.7 -18.5,-0.2 1.9,2.2 3.7,4.5 5.3,6.9 4.5,0.3 9.4,-1 13,2.3 1.6,-2.2 3.1,-4.5 4.5,-6.8 -1.4,-1 -2.5,-2.2 -4.3,-2.3 z"
       id="path116" />
  </g>
  <g
     id="g151"
     style="display:inline">
    <path
       class="st81"
       d="m 317.8,535.1 c -0.2,-2.2 -1.9,-3.8 -3.6,-5 -1.9,-0.9 -3.8,-1.7 -5.8,-2.4 -10.7,-2.9 -21.9,-4.1 -32.9,-4.5 -5.1,1.3 -10.4,0.7 -15.6,0.6 -11.4,0 -22.7,-0.2 -34.1,0.3 -2.6,0.2 -5.1,-0.2 -7.6,-0.9 -1.8,-0.4 -3.7,0 -5.5,0.2 -8.1,0.9 -16.3,1.4 -24.2,3.7 -2.7,3.4 -8.5,3.1 -10,7.5 -1.2,6.7 -0.6,13.6 0.2,20.3 0.5,4.8 0.3,9.6 0.8,14.3 0.4,5.1 1.5,10.4 -0.5,15.3 1,18.1 2.2,36.2 3.2,54.4 1,9.6 0.7,19.3 2.4,28.8 1.8,6.9 7.7,11.9 14.3,14.2 9.6,3.4 19.8,4.4 29.8,5.2 11.6,0.8 23.3,1.1 34.9,0.1 10.8,-0.8 21.9,-1.7 32.2,-5.6 6.5,-2.5 12.4,-7.9 13.5,-15 1.8,-21.9 3,-43.9 4.5,-65.8 1,-15 1.9,-29.9 3.1,-44.9 0.2,-7 1.6,-13.9 0.9,-20.9 z m -121.7,-0.6 c 18.5,-2.9 37.2,-2.8 55.9,-3.1 18.5,0.2 37.3,0.5 55.4,4.8 -0.1,0.4 -0.3,1.2 -0.4,1.6 -1.1,0.3 -2.1,0.7 -3.2,1 h 1.9 c -2.3,2.4 -5.8,2.4 -8.8,2.9 -6.2,0.7 -12.3,1.7 -18.5,1.8 -1.1,0.2 -1.8,-0.7 -2.6,-1.3 -0.7,0 -2.1,0 -2.8,0.1 1,0.4 1.8,0.9 2.6,1.6 -8.8,0.5 -17.6,0.2 -26.3,0.8 -11.9,-1.2 -24,0.4 -35.9,-1.2 -7.6,-1 -15.5,-0.7 -22.7,-3.6 l -0.3,-1.4 c -0.8,-0.2 -2.3,-0.7 -3.1,-0.9 2.5,-2.2 6,-2.4 9.1,-3.1 z m 20.1,139.6 c 0,2.3 -2.7,1.9 -4.2,1.9 -5.4,-0.6 -11,-1.3 -15.9,-3.8 -3.8,-2.1 -4,-6.8 -3.8,-10.6 0,-0.4 -0.2,-1.2 -0.3,-1.6 0,-1.3 0,-2.6 0,-3.9 6,4.8 14,5.2 21,7.9 1.8,0.4 2.2,2.2 2.6,3.7 0,0 0.2,0.7 0.2,0.9 0.2,1.9 0.6,3.7 0.5,5.6 z m 84.5,-6.4 c -1,2.8 -3.6,4.9 -6.4,5.7 -9.3,3.1 -19.2,4.2 -28.9,4.5 1.2,-4.1 1.6,-8.3 3.2,-12.3 0.1,-0.3 0.4,-1 0.6,-1.3 11.1,-1.1 23.5,-1.5 32.4,-9.2 -0.2,4.2 0,8.5 -0.8,12.6 z m 7,-114.4 c -0.2,8.8 -1.2,17.5 -1.6,26.3 -0.1,3.9 -0.2,7.8 -0.6,11.6 -0.7,5.5 -0.8,11 -1.3,16.5 -0.1,1.4 -0.2,2.9 -0.2,4.3 0,0.7 0,2.2 0,2.9 -0.8,8.3 -0.9,16.7 -1.9,25 0,1.9 -0.9,3.6 -2,5.1 -1.2,1.5 -2.5,2.8 -4,3.9 -5.7,3.9 -12.6,5.1 -19.2,6.4 -1.5,0.2 -2.9,0.4 -4.4,0.6 -5.1,0.4 -10.1,1.1 -15.2,1.1 -3,0.9 -6.2,0.6 -9.3,0.6 -3.7,0 -7.5,0.4 -11.1,-0.6 -11.4,-0.5 -22.9,-1.8 -33.8,-5.4 -6,-2 -12.1,-7 -11.7,-13.9 0,0 -0.2,-1.9 0,-3.1 -0.3,-2.7 -0.4,-5.3 -0.6,-8 -0.3,-4.2 -0.6,-8.4 -0.8,-12.5 -0.3,-3.9 -0.8,-7.8 -0.8,-11.7 -0.2,-3.3 -0.4,-6.7 -0.4,-10 -0.2,-1.6 -0.4,-3.3 -0.7,-4.9 0,-1.3 -0.4,-11.4 -0.4,-15.1 -0.9,-8.2 -1.2,-16.5 -1.7,-24.7 5.3,1.9 10.9,2.2 16.3,3.2 0.4,3.6 0.6,7.2 0.6,10.9 0,5.7 0.3,11.4 0.6,17.1 0.3,2.3 0.3,4.5 0.5,6.9 v 0.3 c 0.1,2.9 0.3,5.8 0.6,8.8 0,1.9 0,3.8 0,5.7 h 0.5 c 0,0.3 0,0.8 0,1 6.4,1.3 12.8,2.6 19.3,2.5 -0.4,-6.9 0.6,-13.9 -0.2,-20.8 v -0.7 c 0,-9.5 0.2,-19 0,-28.4 l -0.2,-1.3 c 12.6,0.6 25.2,0 37.8,-0.3 2.4,-0.3 4.8,-0.4 7.2,-0.4 l 0.7,0.5 c 12.8,-1.5 25.9,-1.2 38.3,-5.1 0,2 0,3.9 -0.2,5.9 z"
       id="path117" />
    <path
       class="st144"
       d="m 324.2,654.1 c 19,1.6 38.3,3.1 56.6,8.5 -2,0 -3.9,0 -5.9,-0.4 -9.8,-2.3 -19.9,-3.5 -29.8,-5 -6.5,-0.7 -13.2,-1.9 -19.8,-1.1 -1,2.4 -0.7,4.8 1.7,6.1 -1.3,0 -2.6,0 -3.9,0 0.4,-2.7 0.8,-5.4 1.1,-8.1 z"
       id="path118" />
    <path
       class="st144"
       d="m 154.7,669.8 c 5.1,-3.8 11.1,-6.2 17.1,-8 -0.3,7.4 1.7,14.7 5.1,21.3 l 0.2,1.6 c -5,-5.8 -5.7,-13.7 -6.9,-20.9 -6.5,2.2 -13.4,4.9 -17.9,10.4 -2.3,2.5 -1.7,6.1 -1.9,9.2 -0.3,-0.6 -0.8,-1.8 -1.1,-2.4 -1.3,-4.6 2.1,-8.5 5.5,-11.1 z"
       id="path119" />
    <path
       class="st139"
       d="m 366.3,782.6 c 1.6,2.6 3,5.8 2.2,8.9 -1.6,2.5 -4.7,3.4 -7.5,4 -7,1 -14.2,1.2 -21.3,0.2 8.9,-1.1 18.7,1.6 26.8,-3.2 2.2,-2.8 0.3,-6.7 -0.2,-9.8 z"
       id="path120" />
    <path
       class="st115"
       d="m 237,724.1 c 0.3,-3.3 4.2,-5.1 6.7,-2.8 1.1,3.1 0.3,6.5 0.2,9.8 -0.4,5.9 -0.2,12.4 -3.9,17.4 -1.6,-1.5 -3.7,-3 -3.3,-5.4 0,-6.3 -0.6,-12.7 0.3,-19 z"
       id="path121" />
    <path
       class="st87"
       d="m 269.2,664.3 c -0.1,0.3 -0.4,1 -0.6,1.3 -1.6,4 -2,8.2 -3.2,12.3 9.7,-0.3 19.6,-1.4 28.9,-4.5 2.8,-0.8 5.4,-3 6.4,-5.7 0.7,-4.2 0.5,-8.4 0.8,-12.6 -8.9,7.7 -21.2,8.1 -32.4,9.2 z"
       id="path122" />
    <path
       class="st14"
       d="m 394.8,668.6 -0.6,-1.1 c 3.1,1.3 6,3.1 8.3,5.5 -2.7,-1.2 -5.6,-2.3 -7.7,-4.4 z"
       id="path123" />
    <path
       class="st44"
       d="m 245,604.7 c 11.1,0.2 22.2,-0.1 33.1,-1.8 -2.5,12 -3.3,24.5 -8.5,35.7 -2.4,5.6 -7.7,9.4 -13.6,10.5 -7.9,1.5 -16,1.4 -23.9,1 -5.8,-0.5 -12.2,-0.7 -17,-4.4 -1.5,-0.7 -5.8,-3.4 -4.5,-4 2.8,-2.2 13.3,-3 13.3,-6.6 0.3,-10.3 0.5,-20.7 0.4,-31 l 0.4,-0.3 0.9,0.2 c 6.4,0.8 12.9,0.7 19.4,0.8 z"
       id="path124" />
    <path
       class="st63"
       d="m 303.2,594.7 c -1,0.8 -2.1,1.6 -3.2,2.2 -6.7,3.9 -14.4,4.7 -22,5.9 -2.5,12 -3.3,24.5 -8.5,35.7 -2.4,5.6 -7.7,9.4 -13.6,10.5 -7.9,1.5 -16,1.4 -23.9,1 -5.8,-0.5 -11.4,-0.6 -17,-4.4 -5.6,-3.8 -2.7,-2.2 -5,-4.6 -1.8,-2.1 -2.8,-4.7 -3.9,-7.2 -1.9,-9.3 -0.7,-18.9 -1.2,-28.4 0,-1.3 0,-2.7 0,-4 0,-0.2 0,-0.4 0,-0.6 h -0.5 c -3.6,-0.7 -7.1,-2.3 -10.3,-4 -1.4,-0.7 -4.1,-2.3 -5.5,-2.9 0,2.6 0.2,5.1 0.4,8.4 0,3.9 0.5,7.8 0.8,11.7 0.1,4.2 0.5,8.4 0.8,12.5 0.2,2.7 0,5.2 0.2,7.9 0.2,2.7 0.1,2.9 0.2,3.7 0.2,7 5.9,11.5 12,13.5 10.9,3.6 22.4,4.9 33.8,5.4 6.8,0.2 13.6,0.2 20.4,0 5.1,0 10.1,-0.7 15.2,-1.1 1.5,-0.2 2.9,-0.4 4.4,-0.6 6.6,-1.3 13.6,-2.5 19.2,-6.4 1.5,-1.1 2.9,-2.4 4,-3.9 1.1,-1.5 2,-3.2 2,-5.1 0.9,-8.3 1,-16.7 1.9,-25 0,-0.7 0,-2.2 0,-2.9 0,-1.4 0.1,-2.9 0.2,-4.3 0.5,-5.5 0.5,-9.9 1.2,-15.4 -0.3,0.5 -1.8,1.9 -2.3,2.4 z"
       id="path125" />
    <path
       class="st21"
       d="m 325.3,656.1 c 6.6,-0.8 13.2,0.4 19.8,1.1 10,1.5 20,2.6 29.8,5 1.9,0.5 3.9,0.4 5.9,0.4 4.7,0.7 9.5,2.5 13.5,4.9 l 0.6,1.1 c 2.2,2.1 5,3.2 7.7,4.4 4.2,2.3 5.7,7.6 4.4,12 -3.6,5.5 -9.5,8.8 -15.3,11.6 -10.3,4.6 -21.4,7.2 -32.4,9.4 -7.9,1.4 -15.8,2.7 -23.7,3.6 -5.4,0.5 -10.8,1 -16.2,1.4 -26.4,1.5 -53,1 -79.3,-1.2 -17.5,-1.7 -34.8,-4.7 -51.9,-8.6 -3.2,-0.8 -6.3,-1.6 -9.5,-2.5 -7.8,-2.4 -15.5,-5.3 -22.3,-9.8 -2.3,-1.5 -4.3,-3.4 -5.9,-5.5 0.2,-3.1 -0.5,-6.7 1.9,-9.2 4.5,-5.5 11.4,-8.2 17.9,-10.4 1.3,7.2 1.9,15.1 6.9,20.9 l -0.2,-1.6 c 2.3,2.3 4.4,5 7.3,6.7 6.6,4.3 14.4,5.9 22,7.6 0,0 -1.2,0.9 -1.5,1.1 8.2,1 25.5,3 25.3,3.3 10.4,0.5 20.7,0 31.1,0.2 2.5,0 5,-0.2 7.2,-1.4 2.4,-0.9 5.1,-0.4 7.7,-0.8 2.4,-0.1 4.9,-1 7.3,-0.3 1.3,0.3 2.5,0.8 3.8,0.7 1.8,0.2 1.8,-1.5 0.1,-1.6 6.8,-1 13.1,-3.8 19.7,-5.6 10.1,-0.9 20.3,-1.4 30.3,-3.5 10,-1.9 20.8,-3.5 28.9,-10.3 2.5,-1.9 3.5,-5 2.4,-8 -5.3,-4.7 -12.5,-6.1 -19.2,-7.5 -7.3,-1.4 -14.8,-1.2 -22.2,-1.4 -2.4,-1.3 -2.7,-3.7 -1.7,-6.1 z m 53.6,25.9 c -15.6,8.8 -33.2,13.7 -50.9,15.9 -8.6,1.8 -17.7,1.2 -26.2,3.7 1,0.5 1.8,1.3 3,1.4 8.4,0.6 16.9,-0.4 25.2,-1.4 10.8,-1.1 21.5,-3.6 32,-6.3 6.5,-2 13.4,-3.9 18.4,-8.8 2,-1.9 4.4,-3.8 4.9,-6.6 -2.3,0.4 -4.5,1.1 -6.5,2.3 z"
       id="path126" />
    <path
       class="st39"
       d="m 236.8,657 c 6.8,0.1 13.6,0.2 20.4,0 -3,0.9 -6.2,0.6 -9.3,0.6 -3.7,0 -7.5,0.4 -11.1,-0.6 z"
       id="path127" />
    <path
       class="st87"
       d="m 215.8,668.5 c 0,-0.2 -0.2,-0.9 -0.2,-0.9 -0.4,-1.5 -0.8,-3.3 -2.6,-3.7 -7,-2.6 -15,-3 -21,-7.9 0,1.3 0,2.6 0,3.9 0,0.4 0,1 0,1.5 0.3,3.8 0.3,8.7 4.2,10.8 4.9,2.5 10.5,3.3 15.9,3.8 1.5,0 4.2,0.4 4.2,-1.9 0.1,-1.9 -0.2,-3.8 -0.5,-5.6 z"
       id="path128" />
    <path
       class="st16"
       d="m 323.1,662.1 c 1.3,0 2.6,0 3.9,0 7.4,0.3 14.9,0 22.2,1.4 6.7,1.4 13.9,2.8 19.2,7.5 -15.4,8.9 -33.7,10.1 -51,12.3 3.4,-6.6 4.6,-14 5.6,-21.3 z"
       id="path129" />
    <path
       class="st67"
       d="m 317.4,683.4 c 17.3,-2.2 35.6,-3.4 51,-12.3 1.1,2.9 0,6.1 -2.4,8 -8.1,6.8 -18.9,8.4 -28.9,10.3 -10,2.1 -20.2,2.6 -30.3,3.5 3.8,-2.6 7.7,-5.4 10.3,-9.5 z"
       id="path130" />
    <path
       class="st130"
       d="m 378.9,682 c 2,-1.2 4.2,-1.9 6.5,-2.3 -0.6,2.9 -2.9,4.7 -4.9,6.6 -5,4.9 -11.9,6.8 -18.4,8.8 -10.5,2.8 -21.2,5.3 -32,6.3 -8.4,1 -16.8,2 -25.2,1.4 -1.2,0 -2,-0.9 -3,-1.4 8.5,-2.4 17.5,-1.8 26.2,-3.7 17.7,-2.2 35.2,-7.1 50.9,-15.9 z"
       id="path131" />
    <path
       class="st77"
       d="m 149.2,680.9 c 0.3,0.6 0.8,1.8 1.1,2.4 1.6,2.2 3.6,4.1 5.9,5.5 6.9,4.4 14.6,7.3 22.3,9.8 0.5,12.9 -2.1,25.6 -2.3,38.4 -0.2,2.9 0.8,5.7 2.2,8.3 3.4,-1.9 5.3,-5.3 5.8,-9.1 2.2,-11.5 4.3,-23.2 3.8,-35.1 17.1,4 34.4,6.9 51.9,8.6 26.4,2.1 52.9,2.6 79.3,1.2 0.3,3.7 0.4,7.3 0.4,11 0,11.4 1.4,22.8 3.6,33.9 1.2,5.6 2.9,11.2 5.6,16.3 0.9,2 3.2,2.4 5.1,3.1 0.8,-2.6 1.5,-5.3 0.8,-8 -2,-9.6 -1.1,-19.5 -1.1,-29.2 -0.1,-7.1 0.3,-14.1 0.5,-21.1 0,-2.5 0.6,-5 1.4,-7.4 7.9,-0.9 15.8,-2.2 23.7,-3.6 0,6.7 -0.7,13.4 -0.8,20 0,8.7 0.1,17.4 0.2,26.1 -1.7,-3.6 -2.7,-7.6 -4.8,-10.9 -2,-0.7 -4.1,0.6 -5.4,2.1 -1.1,2.8 -0.4,5.9 0.3,8.8 2.9,10.5 9.2,19.6 16,28 0.6,0.8 1.1,1.7 1.5,2.6 0.5,3.1 2.4,7 0.2,9.8 -8.1,4.8 -17.9,2.1 -26.8,3.2 -17,-1 -32.3,-9.3 -47.7,-15.9 0.3,-10 0.1,-20.1 -1.7,-29.9 -0.8,-3.1 -1.3,-7.4 -5,-8.3 -2.4,-0.8 -3.7,1.9 -4,3.8 -0.8,5.2 -0.4,10.5 -0.6,15.7 0.1,5.4 -0.6,11 1,16.2 -13.3,-2.4 -27.4,-2.1 -40.3,2.2 -6.8,2.3 -12.2,7.3 -18.8,10.2 -6.1,2.6 -12.8,2.5 -19.3,2.3 3.4,-10 5.7,-20.4 5.6,-30.9 -0.2,-2.3 -0.2,-5.2 -2.3,-6.7 -2.1,-1.6 -5.9,-1.5 -7.1,1.2 -2.2,5.6 -2.3,11.7 -3.8,17.4 -0.9,4.8 -2.9,9.3 -3.6,14.1 -0.4,1.7 1.8,2.4 2.8,3.3 -11.3,-1.7 -22.6,-5.1 -32.1,-11.5 0.6,-3.5 1.5,-6.9 2.7,-10.2 2.8,-8.3 4.8,-16.9 5.2,-25.7 0,-2 -0.3,-4 -1.2,-5.7 -1.5,-1 -3.2,-1.5 -4.8,-2.2 -2.1,6.1 -3.1,12.6 -6.3,18.3 -3.4,6.7 -9.8,12.4 -17.4,13.5 -2.8,0.5 -7.4,-0.2 -6.8,-4 1,-6.1 4.9,-11.1 6.9,-16.9 9.1,-20.5 7.4,-43.4 8.1,-65.2 z m 87.8,43.2 c -0.9,6.3 -0.4,12.6 -0.3,19 -0.3,2.4 1.8,3.9 3.3,5.4 3.7,-5 3.5,-11.5 3.9,-17.4 0,-3.2 0.8,-6.6 -0.2,-9.8 -2.5,-2.3 -6.4,-0.5 -6.7,2.8 z"
       id="path132" />
    <path
       class="st52"
       d="m 391.6,696.6 c 5.8,-2.7 11.7,-6.1 15.3,-11.6 1.5,18.3 1.3,36.9 5.3,55 2,7.9 4.8,15.7 9.1,22.6 1.6,2.6 4.2,5 4,8.4 -6.6,2.1 -13.8,-0.3 -19.3,-4.1 -7.4,-5.5 -10.9,-14.8 -11.5,-23.8 -1,-6.6 0,-13.6 -2.4,-20 -0.9,-2.6 -4,-2.2 -6.1,-2.2 -2.7,7.8 -2.3,16.1 -1.1,24.1 1.1,9.1 2.5,18.4 6.5,26.8 1.3,3.9 4.1,7.7 3.2,11.9 -2.4,2.5 -6.3,1.9 -9.5,1.6 -7.1,-0.6 -13.5,-3.8 -20.4,-5.2 -6.8,-8.3 -13.1,-17.5 -16,-28 -0.8,-2.8 -1.4,-6 -0.3,-8.8 1.2,-1.5 3.4,-2.8 5.4,-2.1 2.2,3.4 3.2,7.3 4.8,10.9 -0.1,-8.7 -0.2,-17.4 -0.2,-26.1 0.1,-6.7 0.8,-13.3 0.8,-20 11,-2.1 22.1,-4.7 32.4,-9.4 z"
       id="path133" />
    <path
       class="st32"
       d="m 178.5,698.6 c 3.1,0.9 6.3,1.8 9.5,2.5 0.5,11.8 -1.6,23.5 -3.8,35.1 -0.5,3.8 -2.3,7.2 -5.8,9.1 -1.4,-2.6 -2.4,-5.4 -2.2,-8.3 0.2,-12.8 2.8,-25.6 2.3,-38.4 z"
       id="path134" />
    <path
       class="st138"
       d="m 283.2,699.4 c 1.2,-0.8 2.5,-1.1 4,-0.9 1.7,0.1 1.6,1.8 -0.1,1.6 -1.3,0 -2.6,-0.4 -3.8,-0.7 z"
       id="path135" />
    <path
       class="st20"
       d="m 230.9,700.5 c -7.9,-0.4 -16.8,-2.3 -24.7,-3.1 -0.3,0.2 -1.2,0.9 -1.5,1.1 7.3,0.9 21,2.8 25.3,3.3 0,0 0,0 0,0 0,0 0.2,0 0.2,0 0,0 0,0 0,0 0,0 0,0 0,0 10.2,0.5 20.5,0 30.8,0.2 2.5,0 5,-0.2 7.2,-1.4 -12.5,0.3 -25,0.7 -37.4,0 z"
       id="path136" />
    <path
       class="st114"
       d="m 319.2,710.9 c 5.4,-0.4 10.8,-0.8 16.2,-1.4 -0.9,2.4 -1.4,4.8 -1.4,7.4 -0.2,7 -0.6,14.1 -0.5,21.1 0,9.7 -0.8,19.6 1.1,29.2 0.7,2.7 0,5.4 -0.8,8 -1.9,-0.7 -4.2,-1.1 -5.1,-3.1 -2.7,-5.1 -4.3,-10.7 -5.6,-16.3 -2.2,-11.2 -3.5,-22.5 -3.6,-33.9 0,-3.7 -0.1,-7.3 -0.4,-11 z"
       id="path137" />
    <path
       class="st104"
       d="m 281.3,745.4 c 0.3,-1.9 1.6,-4.6 4,-3.8 3.7,0.9 4.2,5.2 5,8.3 1.8,9.9 1.9,19.9 1.7,29.9 -3.4,-0.9 -6.9,-1.4 -10.2,-2.5 -1.6,-5.3 -0.9,-10.8 -1,-16.2 0.1,-5.2 -0.3,-10.5 0.6,-15.7 z"
       id="path138" />
    <path
       class="st136"
       d="m 199.6,755.5 c 1.1,-2.8 4.9,-2.8 7.1,-1.2 2.2,1.5 2.2,4.3 2.3,6.7 0,10.6 -2.2,21 -5.6,30.9 -2.8,-0.4 -5.7,-0.7 -8.4,-1.6 -1,-1 -3.2,-1.6 -2.8,-3.3 0.7,-4.8 2.8,-9.3 3.6,-14.1 1.5,-5.8 1.6,-11.9 3.8,-17.4 z"
       id="path139" />
    <path
       class="st139"
       d="m 224.1,583.2 c 14.7,-0.7 29.5,-0.8 44.2,0.2 10.3,1.2 21,1.6 30.8,5.4 2.2,0.8 4.7,2 6.4,3.5 -0.3,0.6 -1.8,2 -2.3,2.4 -1,0.8 -2,1.5 -3.1,2.1 -5.9,-2.9 -12.6,-2.7 -18.9,-3 -18.8,-1.2 -37.9,-2.8 -56.7,-1.1 0,-1.7 0,-2.6 -0.2,-9.6 z"
       id="path140" />
    <path
       class="st92"
       d="m 218.4,523.2 c 19,-1 38.2,-1.4 57.2,0 -5.1,1.3 -10.4,0.7 -15.6,0.6 -11.4,0 -22.7,-0.2 -34.1,0.3 -2.6,0.2 -5.1,-0.2 -7.6,-0.9 z"
       id="path141" />
    <path
       class="st92"
       d="m 176.6,536.2 c 0.7,-5.8 7.2,-7.8 12,-9.1 -2.7,3.4 -8.5,3.1 -10,7.6 -1.2,6.7 -0.6,13.6 0.2,20.3 0.5,4.8 0.3,9.6 0.8,14.4 0.4,5.1 1.5,10.4 -0.5,15.3 -1,-16.1 -2.4,-32.3 -2.5,-48.5 z"
       id="path142" />
    <path
       class="st101"
       d="m 196.1,534.5 c 18.5,-2.9 37.2,-2.8 55.9,-3.1 18.5,0.2 37.4,0.1 55.4,4.9 18,4.8 0.3,1.3 -0.4,1.6 -0.7,0.3 -2.1,0.6 -3.2,1 -9.2,2.1 -18.7,2.9 -28.1,3.3 h -2.8 c -12.9,1.4 -25.9,0.8 -38.8,0.8 -14.7,-1 -29.6,-0.6 -43.9,-4.5 l -3.1,-0.9 c 2.5,-2.2 6,-2.4 9.1,-3.1 z"
       id="path143" />
    <path
       class="st124"
       d="m 190.1,538.4 c 14.3,3.9 29.2,3.5 43.9,4.5 12.9,0 25.9,0.6 38.8,-0.7 0.9,0.4 1.8,0.9 2.6,1.6 -8.8,0.5 -17.6,0.2 -26.3,0.8 -11.9,-1.2 -24,0.4 -35.9,-1.2 -7.6,-1 -15.5,-0.7 -22.7,-3.6 l -0.3,-1.4 z"
       id="path144" />
    <path
       class="st36"
       d="m 275.6,542.1 c 9.4,-0.4 18.9,-1.3 28.1,-3.3 h 1.9 c -2.3,2.4 -5.8,2.4 -8.8,2.9 -6.2,0.7 -12.3,1.7 -18.5,1.8 -1.1,0.2 -1.9,-0.7 -2.6,-1.3 z"
       id="path145" />
    <path
       class="st5"
       d="m 261.7,552.5 c -12.6,0.3 -25.2,0.9 -37.8,0.3 l 0.2,1.3 c 0.2,9.5 0,19.7 0,29.2 13.6,0 18.6,-0.7 31.7,-0.4 13.1,0.3 9.4,0.3 12.5,0.6 10.4,1.1 21,1.6 30.8,5.4 2.2,0.8 4.7,2 6.4,3.5 0,-0.3 0,-0.7 0,-0.8 0.4,-3.9 0.5,-8.1 0.6,-12 0.3,-8.8 1.4,-17.5 1.6,-26.3 0,-2 0.1,-3.9 0.2,-5.9 -12.4,4 -43.8,4.8 -46.2,5.1 z"
       id="path146" />
    <path
       class="st40"
       d="m 189.9,590.9 c 4.2,-2.7 9.2,-3.9 14.1,-4.8 0,2.9 0.3,5.8 0.6,8.8 -3.4,0.4 -7,1.3 -10.4,2.1 -1.4,-0.7 -4.1,-2.3 -5.5,-3 0,-0.5 0,-0.7 0,-1.6 z"
       id="path147" />
    <path
       class="st14"
       d="m 224.3,592.9 c 18.8,-1.7 37.9,-0.2 56.7,1.1 6.4,0.3 13.1,0 18.9,3 -6.7,3.9 -13.9,4.5 -21.9,5.9 -8,1.4 -22,2 -33.1,1.8 -6.5,0 -12,-0.1 -18.6,-0.4 -6.6,-0.3 -2.1,-0.2 -2.1,-0.2 -0.3,-3.8 0,-7.5 0,-11.2 z"
       id="path148" />
    <path
       class="st58"
       d="m 194.2,597 c 3.3,-0.9 6.9,-1.7 10.4,-2.1 0,1.9 0.5,4.2 0.4,6.1 -3.6,-0.6 -7.6,-2.2 -10.8,-4 z"
       id="path149" />
    <path
       class="st84"
       d="m 203.5,578.9 c -0.2,-5.7 -0.6,-11.4 -0.6,-17.1 0,-3.6 -0.2,-7.3 -0.6,-10.9 -5.5,-1 -11.1,-1.3 -16.3,-3.2 0.4,8.2 1.2,16.4 1.7,24.7 0.5,8.3 0.4,13.8 0.4,15.1 0.2,1.6 0.5,3.2 0.7,4.9 l 0.9,-1.1 c 0,0 0.3,-0.3 0.4,-0.4 0.4,-0.3 3.3,-1.9 6,-2.8 4.9,-1.6 7.5,-1.9 8.1,-2 -0.2,-2.4 -0.2,-4.8 -0.5,-7.2 z"
       id="path150" />
    <path
       class="st125"
       d="m 205,601 c 3.6,1.3 12.5,2.8 19.3,3.1 0.2,10.2 0,20.7 -0.3,31 0,3.6 -2.6,8.2 -6.1,8.7 -3.5,0.5 -5.5,-0.2 -7.9,-2.7 -1.8,-2.1 -2.8,-4.7 -3.9,-7.2 -1.9,-9.3 -0.7,-18.9 -1.2,-28.4 0,-1.3 0,-3.2 0,-4.6 z"
       id="path151" />
  </g>
  <g
     id="g195"
     style="display:inline">
    <path
       class="st15"
       d="m 550.3,723.2 c 0.1,-1.6 9,-1.7 10.6,-1.3 -1.8,1 -8.5,2.1 -10,2.6 -0.1,-0.2 -0.5,-1 -0.6,-1.2 z"
       id="path152" />
    <path
       class="st34"
       d="m 797.4,741.9 c -1,-1.7 -2.4,-3.2 -3.6,-4.8 -5.9,-6.4 -14.2,-11.6 -23.2,-11.2 -6.1,0.8 -12.6,1.6 -18.4,-1 0,-0.9 0.1,-1.8 0.2,-2.7 1.1,-2.2 2.1,-4.4 3.5,-6.4 2.4,-0.8 5,-0.8 7.5,-1.2 5.4,-0.3 10.6,-1.8 15.7,-3.5 5.8,-2.2 11.7,-4.7 16.4,-8.9 5.1,-4.4 8.4,-10.4 11.1,-16.4 -0.2,-0.4 -0.7,-1.1 -0.9,-1.5 -5.2,-1.2 -10.2,-3 -15.2,-4.5 -8.3,10.4 -20.1,18.6 -33.5,20.1 0,-2.6 -0.6,-5.1 -0.8,-7.7 0.9,-0.6 1.8,-1.2 2.7,-1.9 4,-0.8 9.1,-4.7 7,-9.3 -3.9,-12.7 -16,-20 -27.2,-25.7 -0.4,-0.2 -1.2,-0.6 -1.7,-0.8 -10.5,-4.1 -28.6,-9.6 -49.5,-12.6 -5.3,-0.8 -10.5,-0.9 -15.8,-1.1 -5.2,0 -10.4,-0.1 -15.4,1.2 l -3,0.4 c -9,2 -12.1,3.8 -27.6,8.4 -6.8,2.4 -15.6,7.8 -19.6,10.4 -0.5,0.2 -1.3,0.6 -1.8,0.8 -3.6,1.5 -6.9,3.5 -10.2,5.5 -5.6,3.2 -10.5,7.7 -14.2,13.1 -1.6,2 -2.7,4.6 -5,5.8 -2.7,0.6 -5.5,0.3 -8.2,0.6 -0.6,0 -1.8,-0.2 -2.5,-0.2 -2.4,1.8 -0.6,5.1 0.7,7.1 2.3,3 5,5.8 8.4,7.6 v 0.2 c 2,1.3 5.2,2.2 4.9,5.1 0.4,7 3.2,13.4 7,19.1 11.8,18.6 33.2,27.8 53.9,32.7 l 0.8,0.3 c 18.7,4.6 38.1,5.6 57.3,3.8 5.3,-0.7 10.9,-1.6 16,-3 5.1,-1.4 11,-4.6 16.3,-7.5 3.2,-0.1 5,3.4 7.5,5 3.7,2.2 7.4,4.6 11.3,6.7 1.1,1.6 2.8,2.6 4.3,3.9 2.6,5 2.8,10.6 2,16.1 -0.9,4.2 -1.3,11.1 4.5,11.8 5.9,-1.6 7.8,-8 9.3,-13.2 0,0 0.2,-0.8 0.2,-1.1 1.7,-10 1.6,-21.4 -6.9,-28.5 -8.5,-7.1 -2.2,-1.7 -3.1,-2.3 -4,-2.8 -9,-3.3 -13.6,-3.9 -2.3,-0.7 -4.7,-1.2 -7,-2 2.5,-3.1 4.6,-6.9 8,-9 4.5,-0.3 9,0.6 13.5,-0.4 3.1,-1.1 5.1,2 7.5,3.5 5,2.8 10.6,5.2 14.6,9.5 5.3,5.8 8.1,13.2 10.3,20.5 1.7,4.8 2.8,10.6 7.4,13.7 2.8,1.5 3.8,-2.5 4.6,-4.4 0.8,-3.8 1,-8.4 0.7,-12.3 -0.2,-7.6 -2.7,-17.5 -7.2,-24 z"
       id="path153" />
    <path
       class="st34"
       d="m 523.4,734.2 c 0.7,3 -0.6,5.9 -1.2,8.8 -1,4 -0.3,8.9 -1,13 -2.6,-7 -0.3,-15.1 2.2,-21.8 z"
       id="path154" />
    <path
       class="st101"
       d="m 690,686.1 c 2.5,-2.4 6.5,0.3 7,3 2.6,14.6 -16.1,25.2 -30.3,26.4 -14.2,1.2 -18.5,-1.5 -25.5,-7.2 -7,-5.7 -14.3,-13.5 -9.1,-19.2 5.2,-5.7 5.1,-2.3 7.1,-0.2 4.8,5 10.9,8.9 17.8,10.4 6.9,1.5 18.1,-0.7 25.3,-5.9 7.2,-5.2 5,-5 7.8,-7.2 z"
       id="path155" />
    <path
       class="st98"
       d="m 770.6,725.9 c 8.9,-0.3 17.2,4.9 23.2,11.2 1.7,2.2 4.4,8 4.6,8.5 1.5,4 3.1,8 4,12.2 1.6,6.4 0,13.2 1.5,19.6 v 0.7 c -0.7,1.9 -1.7,5.9 -4.5,4.4 -4.6,-3 -5.8,-8.8 -7.4,-13.7 -2.2,-7.4 -5,-14.8 -10.3,-20.5 -4,-4.3 -9.5,-6.7 -14.6,-9.5 0.1,-0.5 0.4,-1.4 0.5,-1.9 -1,-4.2 3.4,-7 3.1,-11.1 z"
       id="path156" />
    <path
       class="st24"
       d="m 656.1,642.1 c 4.6,-1.2 9.4,-1.2 14.2,-1.2 4.8,0 1.2,0.5 1.3,1.2 0.4,3.2 1.9,7.2 -1.5,8.8 -3.2,1.2 -6.6,1.9 -10,2 -3.4,0.1 -3.7,-1.6 -3.8,-3.6 -0.1,-2 -0.1,-4.4 -0.2,-6.6 z"
       id="path157" />
    <path
       class="st33"
       d="m 564,646.9 c -0.1,-2.5 2.8,-3.3 4.8,-3.7 2.7,-0.2 6.2,-0.7 8.1,1.7 1.8,1.7 3,3.9 3.7,6.2 -1.6,-1.4 -3.2,-2.8 -4.8,-4.1 1.9,4 2.7,9 6.6,11.7 0.4,1.4 0.7,2.8 0.9,4.3 -1.4,2.6 -4.1,4.2 -6.6,5.7 -2.6,1.4 -5,-1.1 -6.5,-2.9 -4.1,-5.3 -6.4,-12.1 -6.2,-18.8 z"
       id="path158" />
    <path
       class="st60"
       d="m 575.9,647 c 1.6,1.4 3.2,2.7 4.8,4.1 1.7,2.1 1.5,5 1.8,7.6 -3.9,-2.7 -4.7,-7.7 -6.6,-11.7 z"
       id="path159" />
    <path
       class="st80"
       d="m 765.8,681.1 c -3.9,-12.7 -16,-20 -27.2,-25.7 -0.4,-0.2 -1.2,-0.6 -1.7,-0.8 -0.2,1.1 -0.3,2.3 -0.5,3.5 0.9,2 0.6,4.1 -0.1,6 -0.6,1 -1.3,2.1 -1.9,3.1 5,1.4 11.5,-0.2 15.2,4.3 0,3.7 -1.6,7.3 -3.2,10.6 1,5 5.4,7.9 9.6,10.2 0.9,-0.6 1.8,-1.2 2.7,-1.9 4,-0.8 9.1,-4.7 7,-9.3 z"
       id="path160" />
    <path
       class="st83"
       d="m 733.6,668.3 c 0.2,-0.3 0.5,-0.8 0.7,-1.1 5.1,1.4 11.5,-0.2 15.2,4.3 0,3.7 -1.6,7.3 -3.2,10.6 -0.5,0.7 -1,1.4 -1.6,2.1 0.6,-2.5 1.3,-4.9 2.1,-7.3 -0.8,0.8 -3.2,1.6 -3.8,1.7 -1.3,0 -1.8,2.4 -3.2,2.5 -1.4,0.1 -4,-1.2 -5.4,-0.4 -1.4,0.8 -2.6,0.3 -4,0.3 1.3,-0.7 3,-0.8 3.9,-1.9 0.9,-1.1 0.4,-1.1 0.2,-1.4 -2.6,-4.3 -1.4,-6.1 -1.1,-9.2 z"
       id="path161" />
    <path
       class="st6"
       d="m 790.3,679.8 c 5.1,1.5 10,3.3 15.2,4.5 0.2,0.4 0.7,1.1 0.9,1.5 -3.1,-1.1 -6.3,-1.9 -9.6,-2.5 -0.5,1.9 -1,3.8 -1.6,5.6 -3.6,1.3 -7,3.1 -10.2,5.3 -5.3,3.7 -11.1,6.4 -17.4,7.6 -6.3,1.2 -9.7,2.3 -11.5,-1.1 -1.8,-3.4 0.4,-0.6 0.6,-0.8 13.4,-1.5 25.2,-9.8 33.5,-20.1 z"
       id="path162" />
    <path
       class="st25"
       d="m 796.9,683.4 c 3.2,0.5 6.4,1.4 9.6,2.5 -2.7,6 -6,12 -11.1,16.4 -4.7,4.2 -10.6,6.7 -16.4,8.9 -5.1,1.7 -10.3,3.2 -15.7,3.5 -2.6,-0.1 -5.2,-0.4 -7.7,-0.6 0.6,-1.6 1.2,-3.1 2,-4.6 2.5,-1.4 5.5,-1.6 8.3,-2.3 9.3,-1.7 17.8,-6.4 25,-12.4 1.9,-1.5 3.4,-3.6 4.4,-5.8 0.6,-1.9 1.1,-3.7 1.6,-5.6 z"
       id="path163" />
    <path
       class="st74"
       d="m 564.6,692.6 c 3.1,2.7 6.5,5.4 8.5,9.1 -3.3,-1.8 -6.1,-4.6 -8.4,-7.6 l -0.2,-1.5 z"
       id="path164" />
    <path
       class="st43"
       d="m 533.9,717.3 c 4.6,-6 12.9,-8.5 20.1,-9.3 1.7,-0.3 3.5,0.1 4.8,1.3 -4.8,0.6 -9.7,0.7 -14.2,2.4 -3.7,1.2 -6.4,4.9 -10.7,5.6 z"
       id="path165" />
    <path
       class="st59"
       d="m 544.6,711.7 c 4.5,-1.7 9.5,-1.8 14.2,-2.4 h 0.2 c 2.2,3.6 4.8,7.1 7.2,10.6 -3.5,1.7 -7.5,2.9 -11.4,2.5 -1.6,-0.4 -3.2,-0.4 -4.5,0.8 0.1,0.2 0.3,0.7 0.4,0.9 l 0.2,0.4 c -10.3,4.5 -15.3,15.2 -19.7,24.8 -1.8,3.5 -3.2,8 -7.3,9.4 -1,-0.8 -1.9,-1.7 -2.7,-2.6 v -0.6 c 0.5,-4.1 0,-8.3 1,-12.3 0.6,-2.9 1.9,-5.8 1.2,-8.8 2,-6.4 5.8,-12.2 10.6,-17 l 0.4,-0.2 c 3.8,-1.1 6.5,-4.2 10.2,-5.4 z"
       id="path166" />
    <path
       class="st0"
       d="m 789,718.2 c 3.6,-3.3 8.2,-5.8 13,-6.4 12.7,2.5 23.1,12.4 27.5,24.4 -0.7,4.5 2.2,8.5 3,12.8 0.2,-0.4 0.7,-1.1 1,-1.4 l 0.2,-0.3 c 0.5,4.6 1.9,9.2 1.2,13.8 -0.3,1.5 -1.7,3.5 -3.4,2.6 -4.9,-1.8 -6.6,-7.2 -8.7,-11.4 -4.6,-10.3 -11.2,-19.9 -20.6,-26.3 -4.1,-3.1 -9.1,-4.5 -13.1,-7.6 z"
       id="path167" />
    <path
       class="st93"
       d="m 751.9,749.7 c 2.3,0.3 3.2,0.5 5.3,1.4 2.1,0.9 3.5,2 4.1,2.6 3.5,3.2 5.8,7.1 6.4,10.8 1.4,8.8 0.5,16 -0.2,17.9 -1.2,3.6 -2.2,8.1 -5.9,9.9 -0.1,-0.5 -0.4,-1.6 -0.5,-2.1 3.8,-8.9 2.4,-19.1 -2,-27.6 -1.8,-4.6 -6.2,-7.9 -7.3,-12.9 z"
       id="path168" />
    <path
       class="st45"
       d="m 551.4,745.9 c 3.1,-8.7 12.2,-13.3 20.8,-15.2 1.2,0 2,1.3 2.9,2.1 -0.3,1.8 -0.4,3.9 -2.1,5 -4.2,3.4 -9.5,5.9 -12.2,10.9 -2.2,4.3 -6,7.8 -7.4,12.6 -1.7,4.9 -2,10.2 -1.5,15.4 -2.1,-2.5 -2.9,-5.6 -3.5,-8.7 1.7,-5 0.6,-10.5 2.4,-15.5 0.4,-2.1 1.9,-4.4 0.7,-6.4 z"
       id="path169" />
    <path
       class="st47"
       d="m 575,732.8 c 2.1,2.6 4.2,5.2 6.3,7.8 1.3,1.4 1.1,4 -0.7,4.7 -5.3,2.7 -11.8,4.6 -14.9,10.2 -4.2,6.4 -3.6,14.5 -6.9,21.2 -1.2,3.2 -5.8,2.8 -7.1,-0.1 -0.5,-5.2 -0.2,-10.4 1.5,-15.4 1.4,-4.8 5.1,-8.2 7.4,-12.6 2.7,-5 8,-7.5 12.2,-10.9 1.7,-1.1 1.8,-3.2 2.1,-5 z"
       id="path170" />
    <path
       class="st71"
       d="m 551.4,745.9 c 1.1,2.1 -0.3,4.4 -0.7,6.4 -1.8,5 -0.8,10.5 -2.4,15.5 -0.6,-7.4 -0.6,-15.3 3.2,-21.9 z"
       id="path171" />
    <path
       class="st65"
       d="m 747.8,762.4 c 2.5,1.7 2.7,1.5 5.3,0 2.6,-1.5 3.6,-1.7 6,0.2 4.4,8.4 5.8,18.6 2,27.6 -1.8,-0.8 -3.7,-1.3 -5.6,-1.8 -0.1,3 1.4,5.5 3.6,7.5 -5.8,-0.7 -5.3,-7.6 -4.5,-11.8 0.2,1.6 0.8,3.1 1.6,4.5 0,-4.5 0,-9.1 -0.1,-13.6 0,-2.7 -1.1,-5.5 -3.5,-7.1 -1.5,-1.3 -3.2,-2.3 -4.3,-3.9 z"
       id="path172" />
    <path
       class="st50"
       d="m 752.6,767.9 c 2.4,1.5 3.4,4.3 3.5,7.1 0.2,4.5 0.2,9.1 0.1,13.6 -0.8,-1.4 -1.4,-2.9 -1.6,-4.5 0.8,-5.5 0.6,-11.1 -2,-16.1 z"
       id="path173" />
    <path
       class="st75"
       d="m 579.7,680.8 c 3.7,-5.4 8.6,-9.8 14.2,-13.1 0.5,0.3 1.6,0.8 2.2,1 1.3,0 2.6,0 3.9,0 -0.9,0.8 -1.8,1.7 -2.6,2.5 1.8,0 3.4,0.7 4.2,2.4 -1.6,0.1 -3.1,0.2 -4.7,0.3 1.2,0.8 2.4,1.5 3.6,2.3 -0.5,0 -1.6,0.2 -2.1,0.3 -1.5,3.8 -2.9,7.5 -4.8,11.1 -2.3,5 -9.1,6.7 -13.4,5 -4.3,-1.7 -1,-6.5 -3.2,-4.9 -2.2,1.6 -7,0.4 -10.4,-0.6 2.7,-0.3 5.5,0 8.2,-0.6 2.3,-1.3 3.4,-3.9 5,-5.8 z"
       id="path174" />
    <path
       class="st93"
       d="m 745.3,716.1 c 2.8,-0.9 5.9,-0.6 8.8,-0.8 -0.8,2.3 -1.5,4.6 -1.7,7 0,0.9 -0.2,1.8 -0.2,2.7 5.8,2.6 12.3,1.7 18.4,1 0.3,4.1 -4.1,6.9 -3.1,11.1 -0.1,0.5 -0.4,1.4 -0.5,1.9 -2.3,-1.5 -4.4,-4.6 -7.5,-3.5 -4.5,1 -9,0 -13.5,0.4 -3.4,2.1 -5.6,5.9 -8,9 2.3,0.7 4.7,1.3 7,2 -0.7,0 -2.5,-0.5 -2.8,0.2 -0.3,0.7 1.3,0.8 1.2,1.5 -0.4,2.5 -6,2.2 -5.8,4.8 0.2,2.6 0.6,3 -0.6,4.1 -2.5,-1.6 -4.3,-5.1 -7.5,-5 -5.4,2.9 -10.7,6.4 -16.8,7.2 -7,-0.2 -13.6,2.7 -20.6,2.6 -10.3,0 -20.7,0.6 -31,-0.9 -5,-0.7 -10.1,-1.1 -15.1,-2.2 -2.1,-0.5 -4.2,-0.6 -6.4,-0.3 h -0.7 c -20.6,-4.9 -42,-14.1 -53.9,-32.6 -11.9,-18.5 -0.8,-3 1.6,-0.6 3.7,3.7 7.8,6.9 12.3,9.7 12.9,7.8 27.2,13.3 42.1,16 12.4,3.1 25.2,4.3 38,3.6 14.2,-0.4 28,-5.4 40.1,-12.7 7.5,-4.5 15.1,-9.5 20.3,-16.7 2.3,-2.9 3.7,-6.3 5.9,-9.3 z"
       id="path175" />
    <g
       id="g179">
      <path
         class="st29"
         d="m 833.3,612.4 c -2.1,-5.4 -5.3,-11.3 -9.5,-15.3 0,0 0,0 0,0 -2.2,-3 -4.7,-5.8 -7.8,-7.9 -3.8,-2.7 -8,-5.9 -13,-5.4 -0.8,2.2 -1.5,4.6 -2,6.9 -3.3,12 -4.7,30.5 -7.3,42.5 -2.2,1.7 -4.9,0.2 -5.9,-2 -4.1,-7.8 -7.6,-15.9 -11.1,-24 v 0 c -0.8,-1.2 -2.3,-2.5 -3.8,-1.4 -5.1,3.3 -7,9.6 -8.2,15.2 -2.8,14.5 0.7,30.5 10.7,41.6 4.7,4.2 10.3,7.4 16.5,8.7 h 0.2 c 11.9,4.4 26,3.7 35.2,-5.7 4.6,-5.2 7,-12 9.1,-18.6 0.1,-0.5 0.8,-3.4 1,-4.3 1.7,-10.6 -0.5,-20.7 -4.3,-30.2 z"
         id="path176" />
      <path
         class="st1"
         d="m 773,605.8 c 1.4,-1.1 2.9,0.2 3.8,1.4 -0.9,0.1 -2.1,-0.1 -2.4,0.7 -1.3,3.1 0.3,5.4 -0.4,8.2 -1.8,7.5 -1.9,15.4 -1,23 0.5,4.1 2.3,8 2.4,12.2 0,1.5 0.3,2.9 1.1,4.3 0.4,-1.2 0.9,-2.4 1.4,-3.6 0.1,3.7 0,7.5 -2.3,10.6 -10,-11.1 -13.5,-27.1 -10.7,-41.6 1.2,-5.6 3.1,-11.9 8.2,-15.2 z"
         id="path177" />
      <path
         class="st144"
         d="m 801.1,590.5 c 2.1,9.4 -2.3,17.7 -3,23.5 -0.9,5.3 -1.2,10.8 -2.3,16.1 -0.1,1.3 -1.1,2.3 -2,3.1 2.6,-12.1 4,-30.7 7.3,-42.7 z"
         id="path178" />
      <path
         class="st108"
         d="m 833.3,612.4 c -2.1,-5.4 -5.3,-11.3 -9.5,-15.3 0.8,7.7 4.1,15.4 4.7,23.2 1.8,17.1 -5.1,35.8 -20.1,45.1 -4.9,3.3 -11,3.8 -16.4,5.9 h 0.2 c 11.9,4.4 26,3.7 35.2,-5.7 4.6,-5.2 7,-12 9.1,-18.6 2.1,-6.6 0.8,-3.4 1,-4.3 1.7,-10.6 -0.5,-20.7 -4.3,-30.2 z"
         id="path179" />
    </g>
    <g
       id="g187">
      <path
         class="st98"
         d="m 630.2,577.8 c -1.8,-2.2 -4.4,0.7 -6.1,1.8 h -0.2 c -7.6,6.6 -14.7,13.8 -22.9,19.5 -2.1,1.7 -4.9,0.8 -6.6,-1 0.8,-4.2 0.7,-8.4 2.3,-12.3 2.8,-6.8 5.5,-13.8 6.7,-21.1 v -0.3 c 0.2,-0.2 0.2,-0.3 0.3,-0.6 2.1,-5 3.4,-10.4 3.4,-15.9 0,-1.8 -1.4,-2.7 -3,-3.5 -0.1,0 -0.5,-0.2 -0.5,-0.2 -2.9,-1 -6.1,-1.5 -9.1,-0.7 -8.4,2.1 -16,6.8 -22.5,12.5 -7.6,5.9 -13.5,14.1 -17.1,23 -5,11.2 -4.4,24.3 -0.2,35.6 2,6.9 7.8,11.8 13.6,15.6 6.2,3.6 13.5,5.6 20.7,4.6 3.3,-0.7 7,-1.8 9,-4.8 1.5,-1.5 2.9,-3.2 4.2,-4.9 4.3,-4.1 7.3,-9.7 12.8,-12.4 3.9,-0.9 7.8,-1.8 11.7,-2.2 4.1,-5.1 4.7,-11.8 5.9,-17.9 0.9,-4.9 0.8,-10.6 -2.4,-14.7 z"
         id="path180" />
      <path
         class="st102"
         d="m 574.3,564.8 c 2.5,-2.4 5.7,-6.2 11.3,-8.9 0,0.4 -3.1,3 -3.8,3.7 -12.6,12.3 -20,29.6 -18.5,47 0.7,5.7 3.7,10.8 5.7,16.1 -1.5,2.3 -2.2,4.9 -0.9,7.5 -5.8,-3.8 -11.7,-8.8 -13.6,-15.6 0,-3.5 0,-7 -0.4,-10.5 0.7,0.8 1.3,1.5 2,2.3 0.6,-0.2 1.8,-0.7 2.3,-1 0.5,-6.6 1.6,-13.1 3.8,-19.4 2.6,-7.8 6,-15.6 12,-21.3 z"
         id="path181" />
      <path
         class="st145"
         d="m 603.5,560.2 c 0.2,0.2 0,3.1 -0.2,4.4 -1.1,7.3 -3.9,14.3 -6.7,21.1 -1.5,4 -1.5,8.2 -2.3,12.3 -0.3,0.2 -1.2,0.9 -1.5,1.1 0,-6 1.3,-12.1 3.7,-17.6 2.6,-5.8 5.4,-15.3 6.9,-21.4 z"
         id="path182" />
      <path
         class="st120"
         d="m 624,579.6 c 1.7,-1.1 4.3,-4 6.1,-1.8 3.1,4.2 3.2,9.8 2.4,14.7 -1.2,6.2 -1.9,12.8 -5.9,17.9 -4,0.4 -7.9,1.3 -11.7,2.2 -0.5,0.2 -2.6,1.4 -3.6,2.4 5.1,-9.9 10.6,-24.4 12.6,-35.3 h 0.2 z"
         id="path183" />
      <path
         class="st70"
         d="m 596.3,630.2 c 1.6,-2.6 3.6,-4.9 6,-6.9 l -0.2,1.7 c -1.3,1.7 -2.7,3.4 -4.2,4.9 z"
         id="path184" />
      <path
         class="st48"
         d="m 603.5,544.2 c 0,0 0.4,0.1 0.5,0.2 1.6,0.8 3.1,1.7 3,3.5 0,5.4 -1.3,10.8 -3.4,15.9 0,0 0,0.3 -0.3,0.9 -0.9,-5.2 2.5,-11.3 1.6,-16.5 0.1,-1.5 -1.2,-1.9 -2.2,-2.5 -0.9,2 -0.7,5 -3.1,5.9 -4.6,1.7 -9.6,2.4 -14.1,4.5 1.3,-1.6 1.4,-2.7 3.4,-3.4 -0.5,-0.3 0.7,-0.9 0.2,-1.2 3.4,-0.8 6.6,-2.1 9.3,-4.3 0,-1 1.4,-1.8 1.5,-2 0.8,-0.1 0.8,0 3.5,-1 z"
         id="path185" />
      <path
         class="st107"
         d="m 594.4,543.6 c 3,-0.9 6.2,-0.3 9.1,0.6 -2.7,1 -4.4,1.8 -5,3 -1.6,3.2 -6.3,2.7 -9.2,5.5 -2.9,2.8 -2.4,1.7 -3.7,3.3 -1.1,0.7 -2.2,1.4 -3.3,2.1 -2.9,1.9 -5.4,4.3 -7.9,6.6 l -1,-2.2 c -1.4,-0.6 -2.7,-1.3 -4.1,-1.9 1.4,-1.6 2.7,-3.2 4.1,-4.8 H 572 c 6.5,-5.6 14.1,-10.2 22.5,-12.3 z"
         id="path186" />
      <path
         class="st144"
         d="m 554.8,579 c 3.6,-8.9 9.5,-17.1 17.1,-23 0,0 2.2,-2 4.1,-3.4 -0.9,1.8 -4.1,4.8 -3.8,7 0.3,2.2 0.5,2.2 1.1,3 0.6,0.8 1,1.4 1,2.2 -6,5.8 -9.4,13.6 -12,21.3 -2.1,6.2 -3.3,12.8 -3.8,19.4 -0.6,0.2 -2.3,1.2 -2.7,2.2 -1,2.7 -1.1,3.5 -1.2,7 -4.2,-11.3 -4.8,-24.4 0.2,-35.6 z"
         id="path187" />
    </g>
    <path
       class="st7"
       d="m 832.5,748.9 c -0.8,-4.3 -3.7,-8.3 -3,-12.8 1.9,3.6 3.2,7.2 4.2,11.1 -0.2,0.4 -0.9,1.4 -1.2,1.7 z"
       id="path188" />
    <g
       id="g194">
      <path
         class="st89"
         d="m 736.5,661.5 c 0.7,-2.1 1.2,-4.2 1.5,-6.4 -0.4,-0.2 -0.8,-0.4 -1.1,-0.5 -10.5,-4.1 -28.6,-9.6 -49.5,-12.6 -0.6,0 -1.1,-0.1 -1.7,-0.2 -0.3,0.8 -0.6,1.6 -0.9,2.5 -5.6,16.8 1.5,34.2 15.8,38.9 14.3,4.7 30.3,-5 35.9,-21.8 z"
         id="path189" />
      <path
         class="st89"
         d="m 654.6,660.7 c 2.1,-6.4 2.5,-12.8 1.5,-18.6 0,0 0,0 0,0 l -3,0.4 c -9,2 -12.1,3.8 -27.6,8.4 -6.8,2.4 -15.6,7.8 -19.6,10.4 -0.2,0.1 -0.6,0.3 -0.9,0.4 1.3,10.2 6.9,18.5 15.6,21.4 13.2,4.4 28.4,-5.7 34,-22.4 z"
         id="path190" />
      <g
         id="g191">
        <ellipse
           class="st137"
           cx="710.79999"
           cy="653.40002"
           rx="30.6"
           ry="25.9"
           transform="rotate(-71.6,711.52299,653.54318)"
           id="ellipse190" />
        <ellipse
           class="st3"
           cx="711.70001"
           cy="653.5"
           rx="28.700001"
           ry="25.1"
           transform="rotate(-71.6,712.3276,653.59654)"
           id="ellipse191" />
      </g>
      <g
         id="g193">
        <ellipse
           class="st137"
           cx="630.5"
           cy="652.70001"
           rx="30.299999"
           ry="24.1"
           transform="rotate(-71.6,631.1994,652.83758)"
           id="ellipse192" />
        <ellipse
           class="st3"
           cx="631.20001"
           cy="653.20001"
           rx="28.6"
           ry="23.6"
           transform="rotate(-71.6,631.82334,653.28758)"
           id="ellipse193" />
      </g>
      <path
         class="st123"
         d="m 710.4,638.1 c -3.8,-0.7 -7.7,1 -10.5,4.2 l 3.4,3.1 c 1.2,1 1.3,2.8 0.2,4 l -0.6,0.7 c -1,1.2 -2.8,1.3 -4,0.2 l -2.5,-2.2 c -0.4,1.1 -0.7,2.2 -0.9,3.4 -1.5,8.6 2.8,16.4 9.5,17.6 6.7,1.2 13.4,-4.8 14.9,-13.4 1.5,-8.6 -2.8,-16.4 -9.5,-17.6 z"
         id="path193" />
      <path
         class="st123"
         d="m 630.2,638.3 c -3.6,-0.9 -7.4,0 -10.5,2.2 l 2.5,2.2 c 1.2,1 1.3,2.8 0.2,4 l -0.6,0.7 c -1,1.2 -2.8,1.3 -4,0.2 l -2.5,-2.3 c -0.9,1.5 -1.7,3.2 -2.1,5 -2.2,8.5 2,16.9 9.2,18.7 7.2,1.8 14.9,-3.6 17,-12.1 2.1,-8.5 -2,-16.9 -9.2,-18.7 z"
         id="path194" />
    </g>
    <path
       class="st41"
       d="m 686,644.9 c -2.4,0.2 -0.4,-3.1 0.4,-0.8 z"
       id="path195" />
  </g>
  <g
     id="g201"
     style="display:inline">
    <path
       class="st95"
       d="m 230.8,820.1 c -6.6,0 -12,2.5 -17.7,7.7 -2.2,2 -12.4,13.1 -13.9,16.8 1.6,-5.2 3,-20.3 3,-20.3 0,-1.3 -0.5,-2.5 -1.5,-3.3 -0.7,-0.6 -1.6,-0.9 -2.5,-0.9 -0.4,0 -0.7,0 -1.1,0.1 -7.1,2 -14.4,3.8 -21.5,5.4 -7.2,1.6 -14.4,3.1 -21.6,4.3 -1.9,0.3 -3.3,2 -3.3,3.9 v 7 c 0,2.1 1.6,3.8 3.6,4 5.9,0.6 8,2 8.8,2.8 0.6,0.6 1.9,2.7 1.9,9.3 v 52.6 c 0,6.6 -1.3,9.7 -1.9,10.3 -0.7,0.8 -1.5,3.3 -6.7,6.1 -5.2,2.8 -5.6,10.5 -5.6,10.5 0,2.2 1.8,4 4,4 h 62.8 c 2.2,0 4,-1.8 4,-4 0,0 0.8,-7.1 -5.3,-9.6 -6.1,-2.5 -8.7,-5.8 -9.7,-6.6 -0.9,-0.8 -2.3,-4 -2.3,-10.6 v -43 c 1.9,-4.7 4.4,-8.2 6.1,-11.2 1.7,-3 5.4,-2.5 6.2,-1.9 0.8,0.6 2.7,2.4 3,2.9 0,0 0,0 0,0 1.6,2.6 3.6,4.6 5.9,6 2.4,1.4 5.2,2.2 8.2,2.2 5.7,0 8.4,-2 11.9,-6 3.4,-3.9 4.2,-8.9 4.2,-15.1 0,-6.2 -1,-12.3 -5.1,-16.6 -4.1,-4.4 -7.4,-6.6 -13.8,-6.6 z"
       id="path196" />
    <path
       class="st95"
       d="m 399.4,920.9 c -3.8,-1.5 -6.9,-3.7 -7.6,-4.5 -0.6,-0.6 -1.9,-2.7 -1.9,-9.2 v -82.8 c 0,-1.2 -0.6,-2.4 -1.5,-3.1 -0.7,-0.6 -1.6,-0.9 -2.5,-0.9 -0.9,0 -0.6,0 -0.9,0.1 -7.4,1.8 -14.9,3.5 -22.3,5.1 -7.4,1.6 -15,3.1 -22.5,4.5 -1.9,0.3 -3.3,2 -3.3,3.9 v 7.1 c 0,2.1 1.6,3.8 3.6,4 5.8,0.6 7.8,2 8.6,2.8 0.6,0.6 1.9,2.8 1.9,9.2 v 44 c -2.9,4.3 -6.1,7.6 -9.4,9.9 -3.3,2.3 -6.6,3.4 -9.9,3.4 -3.3,0 -6.1,-1.6 -7,-2.9 -1.1,-1.6 -2.5,-5 -2.5,-11.9 v -75.2 c 0,-1.2 -0.6,-2.4 -1.5,-3.1 -0.7,-0.6 -1.6,-0.9 -2.5,-0.9 -0.3,0 -0.6,0 -0.9,0.1 -7.4,1.8 -14.9,3.5 -22.4,5.1 -7.4,1.6 -14.9,3.1 -22.5,4.5 -1.9,0.3 -3.3,2 -3.3,3.9 v 7.1 c 0,2 1.5,3.8 3.6,4 5.7,0.6 7.7,2 8.4,2.7 0.6,0.6 1.9,2.7 1.9,9.2 v 43.2 c 0,14.1 2.9,24.9 8.6,32.2 5.9,7.6 14.8,11.5 26.4,11.5 11.6,0 12.9,-1.6 19,-4.9 5.4,-2.8 10.6,-6.9 15.6,-12.1 l -0.6,12.8 c 0,1.3 0.5,2.5 1.5,3.3 0.7,0.6 1.6,0.9 2.5,0.9 0.9,0 0.7,0 1,-0.1 7.2,-1.9 14.5,-3.7 21.7,-5.3 7.2,-1.6 14.5,-3 21.8,-4.2 1.9,-0.3 3.3,-2 3.3,-3.9 0,0 0.9,-7.3 -4.4,-9.4 z"
       id="path197" />
    <path
       class="st95"
       d="m 489,866.6 -18.4,-6.2 c -5.8,-2.1 -8.5,-4 -9.7,-5.2 -1.5,-1.5 -2.1,-3.2 -2.1,-5.5 0,-2.3 1,-5.6 3.2,-7.4 2.3,-2 5.5,-3 9.8,-3 4.3,0 10.9,1.7 15.5,5.3 4.6,3.6 7.7,8.3 9.6,14.5 0.5,1.7 2.1,2.9 3.8,2.9 h 8.6 c 1.1,0 2.1,-0.4 2.9,-1.2 0.8,-0.8 1.2,-1.8 1.1,-2.9 l -1.4,-33.1 c 0,-2.1 -1.9,-3.8 -4,-3.8 h -7.6 c -1.9,0 -3.3,1.4 -3.9,3.2 -0.6,1.8 -3.8,1.2 -10.3,-1.1 -6.6,-2.3 -13.1,-3.4 -19.3,-3.4 -11.4,0 -21.1,3.8 -29,11.2 -7.9,7.5 -11.9,16.7 -11.9,27.6 0,10.9 2.4,16.4 7.2,22.3 4.6,5.8 12,10.5 21.9,14.2 l 19.2,7 c 4,1.5 7,3.3 8.9,5.3 1.6,1.7 2.4,3.6 2.4,6 0,2.4 -1,5.7 -3.3,7.6 -2.4,2.1 -5.7,3.1 -10,3.1 -6.5,0 -12.3,-1.9 -17.8,-5.9 -5.5,-4 -9.4,-9.2 -11.9,-15.8 -0.6,-1.6 -2.1,-2.6 -3.7,-2.6 h -8.3 c -1.1,0 -2.1,0.4 -2.9,1.2 -0.8,0.8 -1.2,1.8 -1.1,2.9 l 1,35.2 c 0,2.2 1.8,3.9 4,3.9 h 7.9 c 1.9,0 3.6,-1.3 3.9,-3.1 0.5,-3.2 4.3,-1.6 11,0.8 7,2.5 14.1,3.8 21,3.8 13.3,0 24.2,-3.7 32.4,-11 8.4,-7.4 12.6,-17.3 12.6,-29.3 0,-12 -2.6,-16.9 -7.7,-23 -5,-5.9 -12.8,-10.7 -23.3,-14.3 z"
       id="path198" />
    <path
       class="st95"
       d="m 616.6,908.9 c -3.9,-3.4 -9,-0.2 -9.8,0.9 -2.2,2.8 -4.4,4.3 -6.5,5.2 -2.1,0.9 -3.9,1.6 -5.4,1.6 -2.8,0 -3.4,-1 -3.7,-1.5 -0.6,-0.9 -1.5,-3.4 -1.5,-9.6 v -62.4 h 21.9 c 2.2,0 4,-1.8 4,-4 v -11.3 c 0,-2.2 -1.8,-4 -4,-4 h -21.9 v -31.2 c 0,-2.2 -1.8,-4 -4,-4 h -9.8 c -1.9,0 -3.5,1.3 -3.9,3.2 -2.3,10.5 -6.1,18.6 -11.3,24.2 -5.1,5.5 -12.2,9 -21.2,10.7 -1.9,0.3 -3.3,2 -3.3,3.9 v 8.6 c 0,2.2 1.8,4 4,4 h 10.3 v 60.1 c 0,14.4 2.3,24.4 7.1,30.8 4.9,6.6 13,9.9 24.1,9.9 11.1,0 16.2,-2.2 22.8,-6.6 6.5,-4.3 10.8,-11.7 14.9,-19.9 0.9,-1.8 0.1,-6 -2.7,-8.5 z"
       id="path199" />
    <path
       class="st95"
       d="m 748.4,915 c -0.3,0 -0.7,-0.1 -1,-0.1 -0.8,0 -1.6,0.2 -2.2,0.7 -0.7,0.5 -1.5,0.9 -2.3,1.1 -0.7,0.2 -2.8,0.7 -3.2,-0.8 -0.4,-1.5 -0.4,-1.3 -0.4,-6.4 v -45.3 c 0,-15.5 -4,-26.7 -12,-33.4 -7.8,-6.6 -20.3,-9.7 -38.1,-9.7 -17.8,0 -25.8,2.4 -34.2,7.3 -9,5.2 -13.6,12.6 -13.6,22 0,9.4 1.8,9.8 5.3,13.3 3.5,3.5 8,5.2 13.4,5.2 5.4,0 9.7,-1.4 13.3,-4.3 3.9,-3 5.9,-7 5.9,-11.5 0,-4.5 -0.1,-3.2 -0.3,-5.3 -0.3,-2.5 -0.3,-3.2 -0.3,-3.3 0,-0.8 0.2,-1.8 2,-2.9 1.9,-1.2 4.6,-1.8 8.1,-1.8 3.5,0 7.5,1 9.4,3 2,2.1 2.9,5.7 2.9,10.7 v 12.6 c -23.1,4.9 -39,10.5 -48.5,17.1 -10.6,7.3 -15.9,17.1 -15.9,29.3 0,12.2 3.2,17.2 9.5,23 6.2,5.7 14.5,8.6 24.7,8.6 10.2,0 13.7,-1.5 20,-4.6 4.5,-2.2 8.9,-5.1 13.3,-8.9 1.4,3.1 3.3,5.7 5.7,7.7 4.1,3.4 9.4,5.2 15.9,5.2 6.5,0 10.4,-1.2 15.4,-4.1 5,-2.9 7.7,-6.5 11.2,-11.5 5.1,-7.4 -2.7,-12.5 -3.8,-12.8 z M 701,884.8 v 23.6 c -2.8,3.5 -5.6,6.1 -8.3,7.8 -2.7,1.7 -5.3,2.6 -7.9,2.6 -2.6,0 -5.5,-1 -7.4,-3.2 -2.1,-2.3 -3.1,-5.3 -3.1,-9 0,-3.7 2.2,-9.3 6.7,-12.9 4.3,-3.3 11,-6.3 20,-8.9 z"
       id="path200" />
    <path
       class="st95"
       d="m 879.8,904.8 c -5,-3.9 -9.2,-2.4 -11.5,-0.3 -4.6,4.3 -8.3,8.3 -12.5,10.4 -4.1,2.1 -8.8,3.2 -13.9,3.2 -8.2,0 -14.4,-3 -19,-9.3 -4.8,-6.6 -7.2,-16.2 -7.2,-28.6 0,-12.4 2.2,-24.1 6.7,-31.8 4.1,-7.1 9.2,-10.5 15.6,-10.5 6.4,0 4.1,0.5 5.5,1.6 1.6,1.2 1.6,2 1.6,2.3 0,0.3 0,1.3 -1,5 -0.8,3.3 -1.2,6 -1.2,8.2 0,5.6 1.9,10.4 5.7,14.1 3.8,3.7 8.6,5.6 14.3,5.6 5.7,0 10.6,-2 14.3,-5.9 3.7,-3.9 5.6,-8.7 5.6,-14.5 0,-10.2 -4.4,-18.7 -13.2,-25.3 -8.4,-6.3 -19.2,-9.5 -32.2,-9.5 -13,0 -33.5,6.1 -45.6,18.1 -12.1,12 -18.2,27.2 -18.2,45.3 0,18.1 5.6,32.4 16.6,43.9 11.1,11.5 25.3,17.4 42.5,17.4 17.2,0 20.5,-2.3 28.8,-6.9 8.3,-4.6 15.3,-11.5 20.7,-20.5 0.9,-1.6 2.6,-8.1 -2.6,-12.1 z"
       id="path201" />
  </g>
  <path
     style="display:inline;fill:none;stroke:#345c48;stroke-width:5.266;stroke-linejoin:round;stroke-dasharray:none;stroke-opacity:1"
     d="m 665.73065,86.505928 -89.36496,2.186286 3.51768,87.896946"
     id="path253"
     sodipodi:nodetypes="ccc" />
  <path
     style="display:inline;fill:none;stroke:#345c48;stroke-width:5.266;stroke-linejoin:round;stroke-dasharray:none;stroke-opacity:1"
     d="m 695.96259,116.95524 -90.45992,0.556 -1.5085,87.42978"
     id="path254"
     sodipodi:nodetypes="ccc" />
  <path
     style="display:inline;fill:none;stroke:#345c48;stroke-width:5.266;stroke-linejoin:round;stroke-dasharray:none;stroke-opacity:1"
     d="m 726.16529,143.62242 -92.3692,3.01708 1.80037,86.85773"
     id="path255"
     sodipodi:nodetypes="ccc" />
  <path
     style="display:inline;fill:none;stroke:#345c48;stroke-width:5.266;stroke-linejoin:round;stroke-dasharray:none;stroke-opacity:1"
     d="m 654.50179,259.71873 89.37102,-4.37022 5.81346,-89.57861"
     id="path256"
     sodipodi:nodetypes="ccc" />
  <path
     style="display:inline;fill:none;stroke:#345c48;stroke-width:5.266;stroke-linejoin:round;stroke-dasharray:none;stroke-opacity:1"
     d="m 680.2623,165.17172 -25.67852,28.2353 13.58918,38.05753 36.06556,0.68968 20.33619,-22.49666 -10.97435,-35.05787 z"
     id="path257"
     sodipodi:nodetypes="ccccccc" />
  <path
     style="display:inline;fill:none;stroke:#345c48;stroke-width:5.266;stroke-dasharray:none;stroke-opacity:1"
     d="m 724.58126,208.56791 -20.1264,5.81347 -2.69041,16.94816"
     id="path259"
     sodipodi:nodetypes="ccc" />
  <g
     id="g21"
     style="display:inline">
    <path
       style="fill:none;stroke:#345c48;stroke-width:5.266;stroke-linecap:round;stroke-linejoin:round;stroke-dasharray:none;stroke-opacity:1"
       d="m 657.45791,193.24442 9.80185,-3.01271 13.94269,20.42185 12.22366,-22.36305 14.57431,0.0653 6.36664,-15.58484"
       id="path258"
       sodipodi:nodetypes="cccccc" />
    <path
       class="st113"
       d="m 543.67166,70.193865 c 2.1,-0.6 5.6,0 5.3,2.9 0.5,3.6 -5,5.3 -6.7,2.2 -1.2,-1.8 -0.3,-4.1 1.3,-5.1 z"
       id="path14" />
    <path
       class="st141"
       d="m 517.5,89.2 c 0.4,-0.4 1.1,-1.2 1.4,-1.6 0.6,2.1 1.2,4.3 2.4,6.1 1.5,1.5 3.4,2.5 5.1,3.6 -1.6,1 -3.4,1.9 -4.9,3.2 -1.3,1.9 -2.1,4.1 -3.1,6.1 -0.8,-2.1 -1.6,-4.2 -2.5,-6.2 -1.9,-0.9 -3.7,-1.8 -5.5,-2.8 3.5,-1.6 6.2,-4.4 7,-8.3 z"
       id="path15" />
    <path
       class="st135"
       d="m 392.1,104.3 c 4.3,-1.7 8.4,3.4 6.5,7.4 -1,4.3 -7.3,4.4 -9.3,0.9 -2.3,-2.8 -0.3,-7.1 2.8,-8.3 z"
       id="path16" />
    <path
       class="st117"
       d="m 310.4,138.4 c 2.8,-1.7 7.1,0.8 6.1,4.2 -0.4,3.8 -6.9,4.3 -7.9,0.7 -0.8,-1.8 0.1,-3.9 1.8,-4.9 z"
       id="path17" />
    <path
       class="st46"
       d="m 354.4,150.6 c 1.2,1.6 2.3,5.6 3.1,7 1.5,1.3 3.4,2.1 5.8,4.7 -1.7,1 -3.5,1.7 -5,3 -1.2,1.6 -3.5,6.7 -3.9,7.2 -1.3,-2.3 -2,-5 -3.6,-7.1 -1.9,-1.3 -3.4,-2.1 -5.6,-3.9 1.9,-1.2 4,-2.2 5.8,-3.6 1.5,-2.2 2,-5 3.5,-7.2 z"
       id="path18" />
    <path
       class="st96"
       d="m 541.4,171.4 c 2.2,-0.8 5.3,1 4.8,3.6 0,3 -4.4,4.3 -6.2,2.1 -1.8,-1.7 -0.6,-4.9 1.5,-5.7 z"
       id="path19" />
    <path
       class="st69"
       d="m 577.4,221.3 c 0.3,-0.4 0.9,-1.2 1.2,-1.6 0.3,3.2 2,6.3 5.4,6.8 v 1.2 c -3.3,0.8 -4.7,3.7 -5.4,6.7 -0.9,-1.7 -1.8,-3.5 -2.7,-5.2 -1.3,-0.6 -2.6,-1.3 -3.9,-1.9 l 1.4,-0.9 c 2.1,-1 3.5,-2.9 4,-5.1 z"
       id="path20" />
    <path
       class="st150"
       d="m 748.3,277.5 c 2.4,-1.8 6.4,1.1 5.1,3.9 -0.4,2.4 -3.8,3.8 -5.4,1.6 -1.8,-1.4 -1.6,-4.3 0.3,-5.5 z"
       id="path21" />
    <path
       class="st150"
       d="m 705.68231,185.29453 c 2.33265,-1.74949 6.22038,1.06912 4.95687,3.79053 -0.38877,2.33263 -3.69334,3.69334 -5.24843,1.55511 -1.74949,-1.3607 -1.55512,-4.17934 0.29156,-5.34564 z"
       id="path21-4"
       style="fill:#4f7258;stroke-width:0.971936" />
  </g>
  <g
     id="g252"
     style="display:inline"
     transform="matrix(1.1901255,0,0,1.1901255,-145.86331,-33.004143)">
    <g
       class="st9"
       id="g231"
       transform="translate(-1.680495,1.680495)">
      <path
         class="st116"
         d="m 603.5195,99.280495 c 0.4,-1.3 1.7,-2.3 3.1,-2.3 25.3,0 50.6,0 75.9,0 0.8,0 1.6,0 2.3,0.3 1.4,0.6 2.2,2.3 1.8,3.800005 -0.3,1.5 -1.8,2.6 -3.3,2.6 -24.4,0 -48.8,0 -73.3,0 v 73.1 c 0,1.1 -0.4,2.2 -1.3,2.8 -1,0.8 -2.5,1 -3.7,0.3 -1.1,-0.6 -1.8,-1.8 -1.8,-3 v -75.7 c 0,-0.7 0,-1.400005 0.2,-2.000005 z"
         id="path226" />
      <g
         id="g228"
         transform="translate(-1.680495,1.680495)">
        <path
           class="st116"
           d="m 629.8,123.5 c 0,-1.8 1.5,-3.4 3.3,-3.4 25.4,0 50.7,0 76.1,0 0.6,0 1.3,0 1.9,0.2 1.4,0.5 2.3,1.9 2.2,3.4 0,1.7 -1.7,3.2 -3.4,3.2 h -73.2 c 0,24.4 0,48.8 0,73.2 0,1 -0.5,2.1 -1.3,2.7 -1,0.8 -2.5,1 -3.6,0.4 -1.1,-0.6 -1.9,-1.8 -1.9,-3.1 0,-25.5 0,-51 0,-76.5 z"
           id="path227" />
        <path
           class="st116"
           d="m 700.8,161.7 c 6.7,-0.7 13.6,0.8 19.4,4.2 4.8,2.7 8.8,6.6 11.7,11.3 2.9,4.7 4.6,10.2 4.8,15.8 0.4,9 -3.2,18.1 -9.6,24.4 -6.4,6.5 -15.6,10 -24.7,9.5 -5.2,-0.3 -10.4,-1.8 -14.9,-4.5 -4.8,-2.8 -8.9,-6.8 -11.7,-11.7 -2.2,-3.8 -3.7,-8.1 -4.2,-12.6 0,-0.2 -0.3,-0.4 -0.2,-0.6 0,-1.4 0,-2.9 0,-4.3 0.2,-6.7 2.5,-13.4 6.6,-18.7 5.4,-7.3 14,-12 23,-12.9 z m -7.1,8.1 c -5.8,2.4 -10.6,6.9 -13.4,12.4 1.3,-0.2 2.6,0 3.8,0.6 2.2,1 3.9,2.9 5.1,5 1.7,3 2.2,6.4 3.4,9.5 0.6,1.5 1.6,3.1 3.3,3.6 0.7,-0.9 1,-2 1.3,-3 0.9,-3.9 1.1,-8.1 3.1,-11.6 1.3,-2.5 3.6,-4.7 6.5,-5.2 2.2,-0.4 4.3,0.3 6.4,0.7 1.5,0.3 2.8,-0.7 3.7,-1.8 1.6,-2 2.2,-4.6 2.8,-7 -2.2,-1.6 -4.6,-2.9 -7.1,-3.7 -6.1,-2.1 -12.9,-1.9 -18.9,0.6 z m 31.1,8 c -0.9,2.8 -2.3,5.6 -4.6,7.6 -1.9,1.7 -4.4,2.7 -6.9,2.5 -1.6,0 -3.2,-0.7 -4.8,-0.9 -0.6,-0.1 -1.3,0.2 -1.7,0.6 -1.2,1.2 -1.8,2.9 -2.2,4.5 -0.6,2.9 -0.9,5.8 -1.8,8.6 -0.6,2 -1.6,4 -3.4,5.1 -1.7,1.2 -4.1,1.4 -6.1,0.6 -2.3,-0.9 -4.2,-2.8 -5.4,-4.9 -1.4,-2.5 -2.1,-5.4 -3,-8.2 -0.5,-1.6 -1.2,-3.2 -2.5,-4.4 -0.4,-0.3 -0.8,-0.6 -1.2,-0.7 -0.5,0.2 -0.8,0.6 -1.1,1 -1.2,1.6 -1.9,3.4 -2.3,5.4 -0.2,0.8 -0.3,1.7 -0.2,2.5 0.5,4.7 2.3,9.3 5.2,13.1 3.1,4.1 7.4,7.3 12.3,9 5,1.8 10.7,2 15.8,0.6 -1,-3.1 -1.5,-6.5 -1,-9.8 0.5,-3.1 1.8,-6.2 4,-8.5 1.8,-1.9 4.1,-3.1 6.6,-3.7 3.2,-0.8 6.5,-0.7 9.7,0 1,-7.1 -1.1,-14.5 -5.5,-20 z m -4.5,26.7 c -2,0.9 -3.3,2.9 -3.9,4.9 -0.8,2.7 -0.5,5.6 0.3,8.2 5.5,-3 9.8,-7.9 12.1,-13.8 -2.8,-0.5 -5.8,-0.6 -8.4,0.7 z"
           id="path228" />
      </g>
      <g
         id="g230"
         transform="translate(-1.680495,1.680495)">
        <path
           class="st116"
           d="m 653.8,147.5 c 0,-1.8 1.6,-3.5 3.4,-3.4 25.2,0 50.5,0 75.7,0 0.7,0 1.3,0 2,0.2 1.3,0.4 2.3,1.7 2.3,3.1 0,1.4 -0.8,2.8 -2.1,3.3 -0.7,0.3 -1.4,0.2 -2.1,0.2 h -72.4 c 0,24.4 0,48.8 0,73.2 0,1.1 -0.5,2.2 -1.4,2.8 -1,0.8 -2.6,0.9 -3.7,0.2 -1.1,-0.6 -1.8,-1.8 -1.7,-3 0,-25.5 0,-51 0,-76.6 z"
           id="path229" />
        <path
           class="st116"
           d="m 748.8,161.5 c 1,-0.7 2.5,-0.8 3.6,-0.1 1,0.6 1.7,1.7 1.7,2.9 0,25.6 0,51.2 0,76.7 0,1.7 -1.5,3.3 -3.3,3.3 -25.6,0 -51.1,0 -76.7,0 -1.2,0 -2.4,-0.7 -3,-1.8 -0.6,-1.1 -0.5,-2.5 0.2,-3.5 0.6,-0.9 1.7,-1.5 2.8,-1.5 24.4,0 48.8,0 73.2,0 0,-24.4 0,-48.8 0,-73.3 0,-1.1 0.6,-2.2 1.5,-2.8 z"
           id="path230" />
      </g>
    </g>
    <path
       class="st113"
       d="m 604.93155,99.183871 c 1.76379,-0.50394 4.70345,0 4.45148,2.435709 0.41995,3.02364 -4.19951,4.45147 -5.62734,1.84778 -1.00788,-1.51181 -0.25197,-3.44359 1.09187,-4.283489 z"
       id="path231"
       style="stroke-width:0.8399" />
    <path
       class="st113"
       d="m 608.31209,173.09284 c 2.1,-0.6 5.6,0 5.3,2.9 0.5,3.6 -5,5.3 -6.7,2.2 -1.2,-1.8 -0.3,-4.1 1.3,-5.1 z"
       id="path232" />
    <path
       class="st113"
       d="m 679.8195,97.080495 c 2.1,-0.6 5.6,0 5.3,2.9 0.5,3.600005 -5,5.300005 -6.7,2.200005 -1.2,-1.8 -0.3,-4.100005 1.3,-5.100005 z"
       id="path233" />
    <path
       class="st113"
       d="m 629.54608,121.61809 c 3.29893,-0.94255 8.79715,0 8.32587,4.55567 0.78546,5.65532 -7.8546,8.32588 -10.52516,3.45603 -1.88511,-2.82766 -0.47128,-6.44078 2.0422,-8.0117 z"
       id="path234"
       style="stroke-width:1.57092" />
    <path
       class="st113"
       d="m 627.5186,198.82202 c 2.26811,-0.64803 6.04828,0 5.72427,3.13214 0.54002,3.88818 -5.40025,5.72427 -7.23634,2.37611 -1.29606,-1.94409 -0.32401,-4.4282 1.40407,-5.50825 z"
       id="path235"
       style="stroke-width:1.08005" />
    <path
       class="st113"
       d="m 704.9195,122.3805 c 2.1,-0.6 5.6,0 5.3,2.9 0.5,3.6 -5,5.3 -6.7,2.2 -1.2,-1.8 -0.3,-4.1 1.3,-5.1 z"
       id="path236" />
    <path
       class="st113"
       d="m 652.9195,147.2805 c 2.1,-0.6 5.6,0 5.3,2.9 0.5,3.6 -5,5.3 -6.7,2.2 -1.2,-1.8 -0.3,-4.1 1.3,-5.1 z"
       id="path237" />
    <path
       class="st113"
       d="m 653.6195,221.9805 c 2.1,-0.6 5.6,0 5.3,2.9 0.5,3.6 -5,5.3 -6.7,2.2 -1.2,-1.8 -0.3,-4.1 1.3,-5.1 z"
       id="path238" />
    <path
       class="st113"
       d="m 668.41995,241.49005 c 2.51604,-0.71887 6.70943,0 6.35,3.47453 0.59906,4.31321 -5.99057,6.35 -8.02736,2.63585 -1.43773,-2.15661 -0.35943,-4.91227 1.55755,-6.11038 z"
       id="path239"
       style="stroke-width:1.19811" />
    <path
       class="st113"
       d="m 710.9195,219.1805 c 2.1,-0.6 5.6,0 5.3,2.9 0.5,3.6 -5,5.3 -6.7,2.2 -1.2,-1.8 -0.3,-4.1 1.3,-5.1 z"
       id="path240" />
    <path
       class="st113"
       d="m 712.84161,205.39412 c 1.65806,-0.47373 4.42149,0 4.18462,2.28969 0.39478,2.84239 -3.94775,4.18462 -5.28999,1.73702 -0.94746,-1.4212 -0.23686,-3.23716 1.02642,-4.02671 z"
       id="path241"
       style="stroke-width:0.789551" />
    <path
       class="st113"
       d="m 728.9195,200.4805 c 2.1,-0.6 5.6,0 5.3,2.9 0.5,3.6 -5,5.3 -6.7,2.2 -1.2,-1.8 -0.3,-4.1 1.3,-5.1 z"
       id="path242" />
    <path
       class="st113"
       d="m 693.82635,202.62741 c 1.56967,-0.44848 4.18579,0 3.96155,2.16764 0.1873,1.34857 -0.75183,2.34043 -1.89532,2.70274 -1.13817,0.36062 -2.47881,0.0975 -3.11267,-1.05833 -0.89696,-1.34543 -0.22424,-3.06459 0.9717,-3.81205 z"
       id="path243"
       sodipodi:nodetypes="ccsccc"
       style="stroke-width:0.747461" />
    <path
       class="st113"
       d="m 681.82871,185.52477 c 1.67973,-0.47993 4.4793,0 4.23933,2.31963 0.39994,2.87956 -3.99937,4.23934 -5.35916,1.75973 -0.95985,-1.43978 -0.23996,-3.27949 1.03984,-4.07936 z"
       id="path244"
       style="stroke-width:0.799875" />
    <path
       class="st113"
       d="m 693.0195,163.3805 c 2.1,-0.6 5.6,0 5.3,2.9 0.5,3.6 -5,5.3 -6.7,2.2 -1.2,-1.8 -0.3,-4.1 1.3,-5.1 z"
       id="path245" />
    <path
       class="st113"
       d="m 682.17012,218.77309 c 2.1,-0.6 5.6,0 5.3,2.9 0.5,3.6 -5,5.3 -6.7,2.2 -1.2,-1.8 -0.3,-4.1 1.3,-5.1 z"
       id="path246" />
    <path
       class="st113"
       d="m 703.6195,182.6805 c 2.1,-0.6 5.6,0 5.3,2.9 0.5,3.6 -5,5.3 -6.7,2.2 -1.2,-1.8 -0.3,-4.1 1.3,-5.1 z"
       id="path247" />
    <path
       class="st113"
       d="m 719.9195,171.5805 c 2.1,-0.6 5.6,0 5.3,2.9 0.5,3.6 -5,5.3 -6.7,2.2 -1.2,-1.8 -0.3,-4.1 1.3,-5.1 z"
       id="path248" />
    <path
       class="st113"
       d="m 670.9195,187.6805 c 2.1,-0.6 5.6,0 5.3,2.9 0.5,3.6 -5,5.3 -6.7,2.2 -1.2,-1.8 -0.3,-4.1 1.3,-5.1 z"
       id="path249" />
    <path
       class="st113"
       d="m 728.2195,146.3805 c 2.1,-0.6 5.6,0 5.3,2.9 0.5,3.6 -5,5.3 -6.7,2.2 -1.2,-1.8 -0.3,-4.1 1.3,-5.1 z"
       id="path250" />
    <path
       class="st113"
       d="m 748.89684,161.2804 c 3.05188,-0.88303 8.13836,0 7.70238,4.268 0.72664,5.29819 -7.2664,7.80013 -9.73697,3.23779 -1.74394,-2.6491 -0.43598,-6.03406 1.88926,-7.50579 z"
       id="path251"
       style="stroke-width:1.46247" />
    <path
       class="st141"
       d="m 744.80264,233.45522 c 0.4,-0.4 1.1,-1.2 1.4,-1.6 0.6,2.1 1.2,4.3 2.4,6.1 1.5,1.5 3.4,2.5 5.1,3.6 -1.6,1 -3.4,1.9 -4.9,3.2 -1.3,1.9 -2.1,4.1 -3.1,6.1 -0.8,-2.1 -1.6,-4.2 -2.5,-6.2 -1.9,-0.9 -3.7,-1.8 -5.5,-2.8 3.5,-1.6 6.2,-4.4 7,-8.3 z"
       id="path252" />
  </g>
</svg>
